<svg width="199" height="282" viewBox="0 0 199 282" fill="none" xmlns="http://www.w3.org/2000/svg">
<g id="Isolation_Mode" opacity="0.6" clip-path="url(#clip0_69_157)">
<path id="Vector" fill-rule="evenodd" clip-rule="evenodd" d="M-34.0417 174.38C-36.1181 177.274 -38.8079 179.679 -41.8887 181.395C-36.854 175.926 -31.1714 169.384 -24.8408 161.767C-24.3281 156.771 -24.9494 153.442 -26.7048 151.78C-25.5894 139.275 1.10182 125.953 11.9728 134.689C14.0119 134.618 16.0099 134.978 17.839 135.748C19.668 136.518 21.2878 137.68 22.5947 139.161C23.9016 140.641 24.8668 142.406 25.4286 144.344C25.9904 146.282 26.1364 148.349 25.8572 150.414C35.6317 152.524 39.3902 155.157 37.1324 158.316C34.4922 169.825 26.0504 177.474 16.3651 176.818C13.0117 177.368 8.0753 181.619 1.55586 189.571L1.5129 189.557L1.67552 189.612L1.80952 189.659L1.84416 189.67L1.90384 189.689L1.94815 189.706L1.99474 189.72L2.00575 189.729L2.03562 189.738L2.08216 189.752L2.12874 189.767L2.17416 189.782L2.21949 189.795L2.26609 189.81L2.31262 189.824L2.34481 189.833L2.35462 189.841C3.0974 190.054 3.86302 190.196 4.64207 190.266C7.61765 190.005 8.69469 190.547 7.87322 191.891C6.14934 194.143 4.89273 196.25 4.10347 198.21C2.3163 199.686 1.43407 199.508 1.45673 197.676C-0.192937 195.762 -1.80376 194.647 -3.37572 194.332L-3.41489 194.324L-3.45881 194.316L-3.50147 194.31L-3.54421 194.301L-3.62722 194.288L-3.65909 194.286L-3.66645 194.28L-3.67375 194.274C-4.00479 194.228 -4.34249 194.219 -4.68106 194.247C-10.7494 195.91 -12.613 194.857 -10.2719 191.089C-19.2292 187.081 -27.2792 181.42 -34.042 174.375L-34.0417 174.38ZM-2.40879 194.601C-2.6405 194.511 -2.87862 194.436 -3.12177 194.377C-3.81728 195.648 -4.51815 196.979 -5.22437 198.372C-4.25728 197.055 -3.31995 195.797 -2.41244 194.597L-2.40879 194.601ZM0.0728176 188.912C5.25109 180.664 10.1656 175.966 14.8164 174.817C19.4577 175.063 23.5008 173.959 26.9456 171.505C26.8574 170.947 26.7735 170.383 26.6942 169.815L26.6864 169.777C26.6457 169.487 26.6096 169.194 26.5802 168.896C26.5385 168.486 26.5107 168.071 26.4923 167.655C24.7206 169.16 22.6532 170.244 20.4607 170.816C18.2681 171.389 16.0132 171.434 13.8819 170.948C11.7505 170.462 9.8039 169.459 8.20244 168.022C6.60099 166.584 5.39061 164.754 4.67115 162.681C9.94645 170.177 23.1206 173.581 28.2489 162.086C25.7571 158.532 25.2423 155.391 26.7045 152.663C21.1704 150.384 18.2074 148.833 17.8156 148.01C19.9241 148.574 22.0021 149.215 24.0495 149.932C24.1518 149.239 24.0245 148.55 23.6877 147.973C22.8319 147.41 21.7915 147.17 20.7328 147.291C21.1104 146.824 21.6257 146.491 22.1917 146.348C22.7577 146.205 23.3397 146.261 23.8398 146.507C22.777 141.486 18.7659 137.768 13.9498 136.941C9.83693 136.232 11.2155 135.872 8.24614 134.584C4.0878 132.785 -0.791694 133.244 -6.39232 135.96C-17.6957 141.271 -23.5969 145.924 -24.0958 149.917C-21.9638 155.438 -21.5972 160.728 -22.9958 165.788C-23.6043 171.333 -22.3527 173.014 -19.2409 170.832C-7.17717 164.162 -16.8828 152.74 -3.57401 142.504C-6.95092 147.43 -9.05804 152.535 -9.89539 157.819C-11.0224 164.961 -12.2044 170.513 -20.141 173.731C-24.2468 175.009 -25.8488 172.376 -24.9469 165.832C-26.4245 166.808 -27.6975 168.084 -28.6758 169.572C-23.9396 175.809 -17.1136 181.073 -8.19796 185.363C-6.52059 183.239 -5.31571 182.948 -4.58332 184.49C-3.5717 186.205 -2.1581 187.624 -0.45568 188.633L-0.418892 188.664L-0.404236 188.676L-0.383418 188.694L-0.299863 188.743L-0.259963 188.766L-0.106465 188.852L-0.0967149 188.86L0.192878 189.012L0.0408582 188.932L0.0728176 188.912ZM28.3309 170.415C29.5351 169.367 30.6273 168.191 31.5862 166.911C32.8378 164.75 33.7864 162.44 34.4022 160.053C33.302 161.259 31.8838 162.115 30.3453 162.503C29.4818 163.338 28.8204 164.362 28.4208 165.482C28.0211 166.603 27.8957 167.785 28.0558 168.923L28.1826 169.59C28.2261 169.864 28.2767 170.139 28.3238 170.414L28.3309 170.415Z" fill="white"/>
<path id="Vector_2" fill-rule="evenodd" clip-rule="evenodd" d="M-46.6002 177.447C-45.3071 132.796 -31.6655 102.52 -5.67566 86.6189C31.8396 63.6663 73.6706 100.163 58.3421 137.867C68.7831 136.209 79.1637 138.445 87.5245 144.154C95.8853 149.863 101.648 158.65 103.725 168.855C107.861 191.139 96.0628 214.09 76.1247 224.973C56.9769 235.423 34.2113 239.567 14.0453 234.559C49.6484 236.015 74.7341 226.565 89.3022 206.21C92.7316 201.662 95.2525 196.518 96.7078 191.099C98.1631 185.68 98.5217 180.102 97.7611 174.713C94.0782 148.557 70.8758 140.914 46.974 146.838C63.657 109.963 44.4222 79.1327 7.27169 87.9329C-26.4285 95.9185 -44.3564 144.251 -46.6002 177.447Z" fill="white"/>
<path id="Vector_3" fill-rule="evenodd" clip-rule="evenodd" d="M2.73133 64.8287C6.62512 73.8949 19.8534 76.1751 32.2816 69.9235C44.7099 63.672 51.6255 51.2533 47.733 42.1904C43.8406 33.1275 30.6111 30.8441 18.1851 37.0953C5.75921 43.3465 -1.1589 55.7631 2.73133 64.8287Z" fill="white"/>
<path id="Vector_4" fill-rule="evenodd" clip-rule="evenodd" d="M56.934 88.0817C61.8513 99.5402 78.5719 102.42 94.277 94.5188C109.982 86.6174 118.725 70.9249 113.805 59.469C108.886 48.0131 92.1687 45.1314 76.4612 53.0332C60.7538 60.9349 52.0133 76.6248 56.934 88.0817Z" fill="white"/>
<path id="Vector_5" fill-rule="evenodd" clip-rule="evenodd" d="M103.506 144.332C113.275 150.27 128.411 143.797 137.31 129.873C146.209 115.949 145.505 99.848 135.736 93.9075C125.968 87.967 110.833 94.4434 101.932 108.368C93.0306 122.292 93.7368 138.395 103.506 144.332Z" fill="white"/>
<path id="Vector_6" fill-rule="evenodd" clip-rule="evenodd" d="M116.363 204.325C124.645 209.359 137.48 203.871 145.027 192.062C152.574 180.252 151.978 166.601 143.696 161.569C135.414 156.537 122.578 162.021 115.03 173.83C107.482 185.638 108.076 199.289 116.363 204.325Z" fill="white"/>
<path id="Vector_7" fill-rule="evenodd" clip-rule="evenodd" d="M25.2345 228.054C23.4533 229.87 22.0926 232.057 21.2652 234.435C24.4906 230.221 28.393 225.419 32.9725 220.028C36.425 219.051 38.8442 219.078 40.2302 220.107C48.8945 217.776 54.9734 197.367 47.4829 190.804C47.2817 189.361 46.7812 188 46.0135 186.809C45.2457 185.618 44.2276 184.622 43.0244 183.886C41.8211 183.15 40.4593 182.689 39.026 182.534C37.5926 182.378 36.1194 182.531 34.7007 182.982C32.0075 176.371 29.6904 174.054 27.7496 176.031C19.9796 179.311 15.6349 186.188 17.2959 192.919C17.3256 195.346 14.9438 199.341 10.1505 204.905L10.166 204.934L10.1033 204.827L10.052 204.739L10.0405 204.718L10.0174 204.678L10.0018 204.647L9.98748 204.617L9.97767 204.609L9.96295 204.596L9.94614 204.564L9.93067 204.535L9.91289 204.507L9.89631 204.479L9.88426 204.449L9.86975 204.416L9.85139 204.401C9.60683 203.907 9.41095 203.386 9.26633 202.847C9.08541 200.723 8.57117 200.032 7.72366 200.774C6.34983 202.265 5.02272 203.408 3.74235 204.203C2.92309 205.644 3.15728 206.243 4.44484 206C5.99293 206.924 6.97644 207.919 7.39538 208.985L7.40372 209.013L7.41577 209.043L7.42522 209.069L7.43721 209.1L7.45649 209.159L7.46331 209.178L7.46941 209.183C7.54094 209.41 7.58832 209.646 7.61085 209.888C7.19425 214.362 8.16494 215.541 10.5228 213.426C14.449 219.23 19.4265 224.192 25.2202 228.076L25.2345 228.054ZM7.09874 208.309C7.19068 208.461 7.27282 208.62 7.34471 208.784C6.53268 209.43 5.68226 210.084 4.78768 210.751C5.59763 209.912 6.36796 209.098 7.09874 208.309ZM10.8005 205.865C15.9654 201.209 18.6641 197.174 18.8969 193.759C18.1484 190.527 18.4265 187.548 19.7311 184.821C20.1344 184.816 20.541 184.805 20.9472 184.786L20.9754 184.785C21.187 184.782 21.3947 184.768 21.607 184.754C21.9023 184.729 22.1963 184.7 22.4921 184.661C21.6523 186.092 21.1456 187.68 21.0139 189.292C20.8821 190.904 21.1292 192.495 21.7346 193.933C22.34 195.371 23.2865 196.615 24.4959 197.563C25.7053 198.512 27.1431 199.136 28.6907 199.386C22.7621 196.601 18.7401 187.761 26.1971 182.735C29.0068 184.045 31.2808 184.019 33.0192 182.656C35.3058 186.267 36.7634 188.159 37.392 188.333C36.7334 186.924 36.0258 185.541 35.2692 184.186C35.7444 184.028 36.2454 184.033 36.6924 184.2C37.1943 184.732 37.4918 185.434 37.5371 186.193C37.82 185.87 37.9915 185.467 38.0227 185.051C38.0539 184.635 37.9428 184.232 37.7083 183.911C39.4906 183.986 41.178 184.566 42.582 185.585C43.9861 186.604 45.0514 188.021 45.6591 189.68C46.6691 192.484 46.7542 191.47 48.0265 193.399C49.805 196.098 50.0835 199.586 48.8622 203.862C46.5213 212.462 43.9758 217.185 41.2254 218.03C37.0795 217.211 33.3121 217.606 29.9232 219.216C26.0958 220.327 24.7573 219.656 25.9077 217.202C29.1141 207.895 38.3495 213.309 43.9097 202.69C40.8577 205.672 37.5249 207.782 33.9114 209.021C29.0274 210.697 25.2678 212.215 23.9799 218.191C23.5877 221.236 25.6387 222.036 30.1329 220.593C29.6288 221.753 28.8866 222.806 27.9591 223.677C22.983 221.121 18.4361 216.971 14.3185 211.228C15.6076 209.787 15.6633 208.904 14.4855 208.58C13.1548 208.08 11.9822 207.262 11.0607 206.192L11.035 206.17L11.0105 206.149L10.9656 206.096L10.9398 206.074L10.8624 205.98L10.8539 205.973C10.8051 205.912 10.7525 205.845 10.7096 205.784L10.7837 205.882L10.8005 205.865ZM10.505 205.461C10.433 205.357 10.3634 205.254 10.2984 205.147C10.3659 205.256 10.433 205.357 10.505 205.461ZM20.3248 183.712C20.916 182.738 21.611 181.827 22.396 180.998C23.7609 179.85 25.2692 178.897 26.8728 178.171C26.1606 179.094 25.733 180.196 25.6494 181.325C25.1682 182.035 24.5294 182.626 23.7903 183.046C23.0512 183.465 22.235 183.699 21.415 183.727L20.9335 183.721L20.3248 183.712Z" fill="white"/>
<path id="Vector_8" fill-rule="evenodd" clip-rule="evenodd" d="M13.5141 148.551C13.5017 147.892 13.2686 147.275 12.8526 146.799C12.4366 146.323 11.8624 146.017 11.2233 145.93C10.5843 145.844 9.91815 145.982 9.3334 146.323C8.74866 146.664 8.27977 147.186 8.00313 147.806C8.9352 147.361 9.95463 147.195 10.9345 147.327C11.9145 147.46 12.8115 147.885 13.5141 148.551Z" fill="white"/>
<path id="Vector_9" fill-rule="evenodd" clip-rule="evenodd" d="M38.5821 193.786C39.034 193.709 39.4864 193.789 39.8639 194.014C40.2414 194.238 40.5213 194.593 40.6572 195.02C40.7931 195.447 40.7767 195.919 40.6108 196.359C40.445 196.799 40.1395 197.18 39.7453 197.438C39.9358 196.752 39.9271 196.041 39.7203 195.391C39.5135 194.742 39.1177 194.184 38.5821 193.786Z" fill="white"/>
</g>
<defs>
<clipPath id="clip0_69_157">
<rect width="199.96" height="199.972" fill="white" transform="matrix(0.765937 0.642915 -0.643262 0.765646 45.6344 -0.00488281)"/>
</clipPath>
</defs>
</svg>
