<svg width="32" height="32" viewBox="0 0 32 32" fill="none" xmlns="http://www.w3.org/2000/svg">
<path fill-rule="evenodd" clip-rule="evenodd" d="M22.667 3.66797C19.5374 3.66797 17.0003 6.20502 17.0003 9.33463C17.0003 10.2429 17.2134 11.0986 17.5911 11.8571C17.8031 12.2828 17.891 12.8043 17.7511 13.3268L17.4137 14.588L18.6749 14.2505C19.1974 14.1108 19.7189 14.1985 20.1446 14.4105C20.9031 14.7884 21.7587 15.0013 22.667 15.0013C25.7966 15.0013 28.3337 12.4642 28.3337 9.33463C28.3337 6.20502 25.7966 3.66797 22.667 3.66797ZM15.0003 9.33463C15.0003 5.10045 18.4329 1.66797 22.667 1.66797C26.9013 1.66797 30.3336 5.10045 30.3336 9.33463C30.3336 13.5688 26.9013 17.0013 22.667 17.0013C21.4425 17.0013 20.2822 16.7134 19.2529 16.2008C19.2298 16.1893 19.2113 16.1848 19.2001 16.1834C19.1949 16.1828 19.1918 16.1829 19.1905 16.1829L17.7078 16.5797C16.3202 16.9509 15.0507 15.6814 15.4221 14.294L15.8187 12.8112C15.8189 12.81 15.8189 12.8068 15.8182 12.8016C15.8169 12.7904 15.8123 12.7718 15.8009 12.7488C15.2882 11.7195 15.0003 10.5593 15.0003 9.33463ZM4.95725 5.45748C6.59216 3.73622 9.29645 4.0587 10.6479 5.97014L12.3292 8.34813C13.4102 9.87701 13.3189 12.0026 12.0288 13.3608L11.7023 13.7045C11.7014 13.7069 11.7005 13.7094 11.6995 13.7122C11.6822 13.7608 11.6386 13.9152 11.6815 14.2081C11.7705 14.8154 12.2394 16.0497 14.143 18.0538C16.0525 20.0642 17.2107 20.538 17.7474 20.6252C17.979 20.6628 18.1001 20.6301 18.1387 20.6165L18.6835 20.0429C19.8486 18.8164 21.665 18.5746 23.1297 19.4177L25.677 20.884C27.8542 22.1372 28.361 25.2026 26.621 27.0345L24.727 29.0286C24.1358 29.651 23.3297 30.1822 22.3337 30.2806C19.9018 30.5206 14.2683 30.208 8.36246 23.9902C2.85157 18.1884 1.80467 13.1418 1.67233 10.6761C1.60695 9.45792 2.14997 8.41299 2.86444 7.66079L4.95725 5.45748ZM9.01485 7.12477C8.33172 6.15857 7.10448 6.10092 6.40736 6.83485L4.31456 9.03817C3.87271 9.50336 3.64088 10.0366 3.66945 10.569C3.77751 12.582 4.64441 17.1717 9.81257 22.6129C15.2315 28.318 20.2238 28.4792 22.1371 28.2902C22.5155 28.2529 22.9047 28.043 23.2768 27.6513L25.1708 25.6572C25.9879 24.797 25.7738 23.2473 24.6792 22.6173L22.1319 21.151C21.4483 20.7576 20.6475 20.8792 20.1337 21.4202L19.5263 22.0596L18.8014 21.3709C19.5263 22.0596 19.5255 22.0605 19.5246 22.0616L19.5226 22.0636L19.5187 22.0676L19.5102 22.0762L19.4911 22.095C19.4774 22.1084 19.4615 22.123 19.4437 22.1388C19.4078 22.1701 19.3634 22.206 19.3102 22.2438C19.2033 22.3196 19.061 22.4029 18.8811 22.4738C18.5131 22.6189 18.0271 22.6968 17.4269 22.5993C16.2567 22.4093 14.7233 21.5689 12.6928 19.4312C10.6563 17.2872 9.87693 15.6876 9.70265 14.4981C9.61395 13.8926 9.68493 13.4078 9.8152 13.0417C9.87926 12.8617 9.95491 12.7182 10.0247 12.6091C10.0595 12.5548 10.0926 12.5093 10.1219 12.4722C10.1366 12.4537 10.1503 12.4373 10.1627 12.423L10.1805 12.403L10.1887 12.3941L10.1925 12.39L10.1944 12.388C10.1953 12.387 10.1963 12.386 10.9213 13.0747L10.1963 12.386L10.5787 11.9834C11.1727 11.358 11.259 10.2988 10.6962 9.50274L9.01485 7.12477ZM22.667 5.66797C23.2194 5.66797 23.667 6.11569 23.667 6.66797V8.33463H25.3337C25.886 8.33463 26.3337 8.78235 26.3337 9.33463C26.3337 9.88692 25.886 10.3346 25.3337 10.3346H23.667V12.0013C23.667 12.5536 23.2194 13.0013 22.667 13.0013C22.1147 13.0013 21.667 12.5536 21.667 12.0013V10.3346H20.0003C19.4481 10.3346 19.0003 9.88692 19.0003 9.33463C19.0003 8.78235 19.4481 8.33463 20.0003 8.33463H21.667V6.66797C21.667 6.11569 22.1147 5.66797 22.667 5.66797Z" fill="#2B2B2B"/>
</svg>
