<svg width="32" height="32" viewBox="0 0 32 32" fill="none" xmlns="http://www.w3.org/2000/svg">
<path d="M8.21172 4.35938L23.7555 4.28125V11.1313C23.7555 11.1313 25.6211 11.9375 25.8461 12.0844C26.5211 12.5312 27.5211 12.7094 27.5211 14.9688V25.0844C27.5211 26.3719 26.4773 27.4125 25.193 27.4125H6.76172C5.47422 27.4125 4.43359 26.3687 4.43359 25.0844V15.5312C4.43359 15.3625 4.45234 15.0562 4.43359 14.6875C4.39297 13.8813 4.54922 13.0906 5.36172 12.4937C5.83359 12.1469 6.43984 11.9156 6.95547 11.6844C7.65547 11.3687 8.21172 11.125 8.21172 11.125V4.35938Z" fill="white"/>
<path d="M8.21133 12.4922L7.00195 13.0328L6.98945 13.0391C6.4832 13.2391 6.16445 13.4266 5.9707 13.6172L8.21445 14.8297V12.4922H8.21133ZM24.9301 13.0203L23.7551 12.4984V14.8234L25.9613 13.6297C25.7582 13.4547 25.4332 13.2703 24.9301 13.0203Z" fill="#E6E6E6"/>
<path d="M7.89258 23.5516V17.5234C7.89258 17.3516 7.75195 17.2109 7.58008 17.2109C7.4082 17.2109 7.26758 17.3516 7.26758 17.5234V23.5516C7.26758 24.1609 7.76445 24.6578 8.37383 24.6578H17.7113C17.8832 24.6578 18.0238 24.5172 18.0238 24.3453C18.0238 24.1734 17.8832 24.0328 17.7113 24.0328H8.3707C8.1082 24.0297 7.89258 23.8141 7.89258 23.5516Z" fill="#44433F"/>
<path d="M27.4353 13.6789C27.4353 13.6852 27.4384 13.6883 27.4384 13.6914C27.4384 13.6883 27.4353 13.682 27.4353 13.6789ZM18.9728 14.8602C19.4541 14.5945 19.8353 14.2289 20.0697 13.8164C20.1447 13.7477 20.1884 13.657 20.1947 13.557C20.2041 13.532 20.2166 13.5039 20.2259 13.4789H20.1947C20.1884 13.2664 20.0103 13.0977 19.7947 13.0977C19.5884 13.0977 19.4166 13.2539 19.3978 13.4602H19.3916C19.0822 13.8477 18.6728 14.1195 18.1666 14.3133C17.6603 14.507 17.0541 14.632 16.3478 14.632C15.6166 14.632 15.0103 14.4883 14.4416 14.257C13.8822 14.032 13.4103 13.6352 13.0916 13.1258C12.7791 12.6227 12.6228 12.0852 12.6228 11.4695C12.6228 10.8383 12.7822 10.232 13.0634 9.64766C13.3353 9.07578 13.7759 8.60391 14.3259 8.29141C14.8822 7.96953 15.5197 7.80391 16.3166 7.80391C17.2572 7.80391 17.9916 8.05078 18.5166 8.53203C19.0416 9.01328 19.1978 9.61328 19.1978 10.3289C19.1978 10.7289 19.1478 11.1133 18.9634 11.4852C18.7791 11.857 18.5978 12.0602 18.2978 12.282C18.0759 12.4508 17.5759 12.6477 17.4322 12.6477C17.3853 12.6477 17.3447 12.6289 17.3103 12.5914C17.2759 12.557 17.2603 12.5008 17.2603 12.4289C17.2697 12.2945 17.2916 12.1602 17.3228 12.0258L17.9791 9.51641C18.0103 9.46016 18.0353 9.40078 18.0353 9.33203L18.0322 9.31328L18.0353 9.30078H18.0322V9.29766C18.0322 9.08828 17.8572 8.91641 17.6447 8.91641C17.5416 8.91641 17.4447 8.95391 17.3697 9.02578C17.2978 9.09766 17.2541 9.19453 17.2541 9.29766L17.2572 9.33203C17.2572 9.35703 17.2666 9.37891 17.2728 9.40078L17.2322 9.54766C16.9822 9.15078 16.3947 8.90703 15.8666 8.90703C15.4197 8.90703 14.7509 9.21641 14.2947 9.91328C13.9572 10.4477 13.7634 11.0602 13.7384 11.6883C13.7197 12.2414 13.8853 12.732 14.2072 13.0633C14.5291 13.3945 14.9259 13.4914 15.1728 13.4914C15.6259 13.4914 16.0291 13.3258 16.3759 12.9945C16.4103 13.1445 16.4978 13.2758 16.6228 13.3633C16.7447 13.4477 16.9291 13.4914 17.1759 13.4914C18.0853 13.4914 18.9228 13.0164 19.3853 12.3789C19.7822 11.8383 20.0041 11.1102 20.0041 10.3695C20.0041 9.74766 19.9041 9.17266 19.5978 8.64766C19.2916 8.12266 18.8978 7.71641 18.3197 7.43203C17.7416 7.14766 17.0822 7.00391 16.3384 7.00391C15.4634 7.00391 14.6822 7.18203 14.0009 7.53516C13.3197 7.88828 12.7822 8.41953 12.3916 9.12266C11.9978 9.82891 11.8009 10.5883 11.8009 11.407C11.7947 12.1289 11.9728 12.8383 12.3197 13.4727C12.6697 14.1258 13.2259 14.6414 13.9009 14.9477C14.6103 15.2727 15.4478 15.4352 16.4228 15.4352C17.4228 15.4352 18.2759 15.2445 18.9728 14.8602ZM16.5603 11.5195C16.4447 11.8602 16.3103 12.1195 16.1541 12.2977C16.0447 12.4227 15.9322 12.5133 15.8228 12.5727C15.6759 12.6539 15.5666 12.7164 15.3978 12.7164C15.1728 12.7164 14.8884 12.6289 14.7384 12.4539C14.5853 12.2789 14.5103 12.007 14.5103 11.6383C14.5103 11.3633 14.6541 11.0445 14.7634 10.6883C14.8728 10.332 15.0353 10.1508 15.2509 9.95703C15.4666 9.76328 15.6634 9.71016 15.9166 9.71016C16.1541 9.71016 16.4041 9.77891 16.5572 9.95391C16.7134 10.1289 16.8103 10.2664 16.8103 10.5945C16.8134 10.8852 16.6728 11.1789 16.5603 11.5195Z" fill="#2B2B2B"/>
<path d="M27.4398 13.6906C27.4398 13.6844 27.4367 13.6813 27.4367 13.6781C27.1648 12.7344 26.2742 12.2938 25.4742 11.8969L25.4617 11.8906L23.7555 11.1281V4.28125L8.21172 4.35938V11.125L6.51797 11.8813C5.54609 12.2656 4.43359 12.8906 4.43359 14.3031V25.0875C4.43359 26.3687 5.47734 27.4125 6.75859 27.4125H25.1961C26.4773 27.4125 27.5211 26.3687 27.5211 25.0875V14.3031C27.5211 14.0781 27.493 13.875 27.4398 13.6906ZM23.7555 12.5L24.9305 13.025C25.4367 13.275 25.7586 13.4594 25.9617 13.6313L23.7555 14.825V12.5ZM9.46172 11.5188V5.60313L22.5055 5.5375V15.5L16.2867 18.8656C16.0961 18.9688 15.8648 18.9688 15.6742 18.8656L9.46172 15.5063V11.5188ZM8.21172 12.4937V14.8313L5.96797 13.6156C6.16172 13.425 8.21172 12.4937 8.21172 12.4937ZM26.2711 25.0875C26.2711 25.6812 25.7898 26.1625 25.1961 26.1625H6.75859C6.16484 26.1625 5.68359 25.6812 5.68359 25.0875V14.8844L15.0742 19.9688C15.3555 20.1219 15.6648 20.1969 15.9773 20.1969C16.2867 20.1969 16.5961 20.1219 16.8805 19.9688L26.2711 14.8844V25.0875Z" fill="#2B2B2B"/>
</svg>
