<svg width="20" height="20" viewBox="0 0 20 20" fill="none" xmlns="http://www.w3.org/2000/svg">
<path d="M11.4433 18.1417L11.895 17.3786L10.8193 16.7418L10.3675 17.5051L11.4433 18.1417ZM8.10466 17.3786L8.55642 18.1417L9.63209 17.5051L9.18034 16.7418L8.10466 17.3786ZM10.3675 17.5051C10.2069 17.7764 9.79275 17.7764 9.63209 17.5051L8.55642 18.1417C9.20109 19.2309 10.7986 19.2309 11.4433 18.1417L10.3675 17.5051ZM8.74984 2.29199H11.2498V1.04199H8.74984V2.29199ZM17.7082 8.75032V9.58366H18.9582V8.75032H17.7082ZM2.2915 9.58366V8.75032H1.0415V9.58366H2.2915ZM1.0415 9.58366C1.0415 10.5458 1.04116 11.2987 1.0826 11.906C1.12442 12.5189 1.21086 13.029 1.40625 13.5007L2.5611 13.0223C2.43931 12.7283 2.36718 12.3702 2.3297 11.8209C2.29185 11.2661 2.2915 10.5629 2.2915 9.58366H1.0415ZM6.50192 15.2017C5.45572 15.1836 4.90753 15.1171 4.47783 14.9391L3.99948 16.0939C4.67029 16.3717 5.43432 16.4334 6.48039 16.4514L6.50192 15.2017ZM1.40625 13.5007C1.89257 14.6747 2.82539 15.6076 3.99948 16.0939L4.47783 14.9391C3.61002 14.5796 2.92055 13.8902 2.5611 13.0223L1.40625 13.5007ZM17.7082 9.58366C17.7082 10.5629 17.7078 11.2661 17.67 11.8209C17.6325 12.3702 17.5603 12.7283 17.4386 13.0223L18.5934 13.5007C18.7888 13.029 18.8753 12.5189 18.9171 11.906C18.9585 11.2987 18.9582 10.5458 18.9582 9.58366H17.7082ZM13.5193 16.4514C14.5653 16.4334 15.3294 16.3717 16.0002 16.0939L15.5218 14.9391C15.0922 15.1171 14.5439 15.1836 13.4978 15.2017L13.5193 16.4514ZM17.4386 13.0223C17.0791 13.8902 16.3897 14.5796 15.5218 14.9391L16.0002 16.0939C17.1743 15.6076 18.1071 14.6747 18.5934 13.5007L17.4386 13.0223ZM11.2498 2.29199C12.6258 2.29199 13.614 2.29265 14.3848 2.36593C15.1463 2.43833 15.6308 2.57718 16.017 2.81389L16.6702 1.74809C16.0544 1.3708 15.356 1.20265 14.5031 1.12155C13.6594 1.04133 12.6017 1.04199 11.2498 1.04199V2.29199ZM18.9582 8.75032C18.9582 7.3985 18.9588 6.34074 18.8786 5.49708C18.7975 4.64412 18.6293 3.9457 18.2521 3.33002L17.1863 3.98314C17.423 4.36942 17.5618 4.85394 17.6343 5.6154C17.7075 6.38616 17.7082 7.37429 17.7082 8.75032H18.9582ZM16.017 2.81389C16.4936 3.10593 16.8943 3.50659 17.1863 3.98314L18.2521 3.33002C17.857 2.68528 17.3149 2.14319 16.6702 1.74809L16.017 2.81389ZM8.74984 1.04199C7.39801 1.04199 6.34025 1.04133 5.49659 1.12155C4.64364 1.20265 3.94521 1.3708 3.32953 1.74809L3.98265 2.81389C4.36893 2.57718 4.85345 2.43833 5.61491 2.36593C6.38567 2.29265 7.3738 2.29199 8.74984 2.29199V1.04199ZM2.2915 8.75032C2.2915 7.37429 2.29216 6.38616 2.36545 5.6154C2.43785 4.85394 2.5767 4.36942 2.8134 3.98314L1.7476 3.33002C1.37031 3.9457 1.20216 4.64412 1.12106 5.49708C1.04085 6.34074 1.0415 7.3985 1.0415 8.75032H2.2915ZM3.32953 1.74809C2.68479 2.14319 2.1427 2.68528 1.7476 3.33002L2.8134 3.98314C3.10544 3.50659 3.5061 3.10593 3.98265 2.81389L3.32953 1.74809ZM9.18034 16.7418C9.01117 16.456 8.86267 16.2037 8.71825 16.0056C8.56609 15.7969 8.39167 15.609 8.14972 15.4682L7.52127 16.5488C7.56078 16.5717 7.6146 16.6137 7.70804 16.7418C7.80919 16.8807 7.92346 17.0724 8.10466 17.3786L9.18034 16.7418ZM6.48039 16.4514C6.84629 16.4577 7.07806 16.4624 7.25474 16.4819C7.41983 16.5002 7.48382 16.527 7.52127 16.5488L8.14972 15.4682C7.90575 15.3263 7.65189 15.2682 7.39231 15.2395C7.14433 15.2121 6.84463 15.2076 6.50192 15.2017L6.48039 16.4514ZM11.895 17.3786C12.0762 17.0724 12.1904 16.8807 12.2916 16.7418C12.385 16.6137 12.4388 16.5717 12.4783 16.5488L11.8499 15.4682C11.608 15.609 11.4335 15.7969 11.2814 16.0056C11.137 16.2037 10.9885 16.456 10.8193 16.7418L11.895 17.3786ZM13.4978 15.2017C13.155 15.2076 12.8553 15.2121 12.6073 15.2395C12.3478 15.2682 12.0939 15.3263 11.8499 15.4682L12.4783 16.5488C12.5158 16.527 12.5798 16.5002 12.7449 16.4819C12.9216 16.4624 13.1533 16.4577 13.5193 16.4514L13.4978 15.2017Z" fill="white"/>
<path opacity="0.5" d="M6.6665 9.16699H6.674M9.99234 9.16699H9.99984M13.3257 9.16699H13.3332" stroke="white" stroke-width="2" stroke-linecap="round" stroke-linejoin="round"/>
</svg>
