<svg width="282" height="282" viewBox="0 0 282 282" fill="none" xmlns="http://www.w3.org/2000/svg">
<g opacity="0.6" clip-path="url(#clip0_774_2162)">
<path fill-rule="evenodd" clip-rule="evenodd" d="M158.006 237.24C160.498 239.787 162.401 242.852 163.558 246.184C159.042 240.278 153.581 233.548 147.174 225.994C142.34 224.623 138.952 224.658 137.011 226.099C124.884 222.834 116.384 194.24 126.876 185.048C127.159 183.027 127.86 181.122 128.936 179.454C130.012 177.786 131.437 176.392 133.122 175.362C134.807 174.331 136.714 173.686 138.72 173.469C140.727 173.251 142.789 173.466 144.775 174.099C148.548 164.838 151.794 161.593 154.515 164.364C165.397 168.958 171.47 178.597 169.145 188.021C169.105 191.419 172.438 197.017 179.143 204.815L179.123 204.855L179.205 204.705L179.275 204.581L179.291 204.549L179.32 204.493L179.344 204.452L179.366 204.409L179.377 204.4L179.392 204.372L179.414 204.328L179.436 204.285L179.459 204.243L179.48 204.201L179.502 204.157L179.524 204.114L179.538 204.084L179.548 204.075C179.886 203.381 180.159 202.652 180.364 201.896C180.622 198.921 181.342 197.954 182.524 198.996C184.445 201.084 186.302 202.686 188.097 203.803C189.241 205.819 188.913 206.657 187.112 206.317C184.94 207.61 183.563 209.003 182.979 210.497L182.965 210.534L182.95 210.576L182.936 210.617L182.92 210.658L182.893 210.737L182.885 210.768L182.878 210.774L182.871 210.78C182.768 211.098 182.701 211.429 182.669 211.768C183.256 218.032 181.896 219.685 178.589 216.727C173.087 224.853 166.115 231.8 158.002 237.24L158.006 237.24ZM183.412 209.591C183.283 209.804 183.169 210.025 183.068 210.255C184.2 211.16 185.39 212.081 186.64 213.018C185.51 211.837 184.433 210.696 183.408 209.594L183.412 209.591ZM178.237 206.162C171.009 199.633 167.231 193.979 166.905 189.2C167.952 184.672 167.565 180.499 165.744 176.681C165.179 176.671 164.609 176.656 164.035 176.636L163.996 176.637C163.704 176.627 163.409 176.612 163.11 176.589C162.699 176.559 162.286 176.514 161.873 176.46C163.049 178.466 163.758 180.69 163.942 182.948C164.126 185.207 163.779 187.435 162.931 189.45C162.083 191.465 160.758 193.208 159.064 194.536C157.37 195.864 155.356 196.739 153.189 197.088C161.49 193.192 167.127 180.808 156.69 173.766C152.757 175.604 149.572 175.567 147.138 173.654C143.934 178.709 141.892 181.358 141.013 181.602C141.934 179.623 142.925 177.687 143.987 175.795C143.322 175.575 142.621 175.58 141.994 175.812C141.291 176.558 140.874 177.54 140.81 178.604C140.415 178.151 140.176 177.586 140.134 177.004C140.091 176.422 140.247 175.858 140.576 175.408C135.445 175.585 131.087 178.891 129.437 183.491C128.025 187.418 127.909 185.998 126.127 188.7C123.633 192.483 123.239 197.368 124.944 203.354C128.218 215.406 131.78 222.024 135.628 223.207C141.437 222.064 146.713 222.619 151.455 224.873C156.813 226.433 158.687 225.492 157.076 222.05C152.595 209.013 139.66 216.593 131.881 201.712C136.149 205.892 140.814 208.851 145.874 210.591C152.716 212.939 157.982 215.065 159.776 223.438C160.324 227.703 157.452 228.825 151.161 226.803C151.866 228.427 152.903 229.902 154.199 231.123C161.165 227.539 167.535 221.729 173.307 213.692C171.505 211.672 171.427 210.435 173.073 209.981C174.938 209.282 176.581 208.136 177.871 206.634L177.908 206.603L177.922 206.591L177.943 206.573L178.007 206.5L178.035 206.464L178.147 206.328L178.156 206.32L178.357 206.061L178.252 206.197L178.237 206.162ZM164.911 175.128C164.086 173.76 163.117 172.481 162.022 171.315C160.11 169.708 157.998 168.373 155.754 167.354C156.751 168.646 157.349 170.191 157.464 171.773C158.137 172.768 159.031 173.597 160.066 174.185C161.101 174.772 162.244 175.101 163.392 175.14L164.072 175.131C164.349 175.136 164.629 175.133 164.908 175.135L164.911 175.128Z" fill="#F8D9CC"/>
<path fill-rule="evenodd" clip-rule="evenodd" d="M158.852 250.136C115.083 241.127 87.617 222.447 76.4548 194.096C60.3425 153.174 103.551 118.301 138.044 139.93C138.219 129.36 142.222 119.525 149.296 112.28C156.37 105.035 166.026 100.882 176.441 100.606C199.114 100.392 219.681 115.988 226.949 137.509C233.926 158.177 234.063 181.315 225.633 200.307C233.239 165.497 228.276 139.155 210.746 121.281C206.859 117.116 202.228 113.742 197.141 111.37C192.054 108.998 186.62 107.678 181.179 107.493C154.769 106.588 143.218 128.114 144.912 152.68C111.471 129.861 77.7618 143.462 79.9934 181.573C82.0205 216.145 126.534 242.175 158.852 250.136Z" fill="#F8D9CC"/>
<path fill-rule="evenodd" clip-rule="evenodd" d="M56.4427 182.044C66.0503 179.78 70.5896 167.148 66.5842 153.825C62.5788 140.503 51.5416 131.54 41.9376 133.803C32.3336 136.067 27.7908 148.7 31.7963 162.02C35.8018 175.34 46.8365 184.305 56.4427 182.044Z" fill="#F8D9CC"/>
<path fill-rule="evenodd" clip-rule="evenodd" d="M88.7471 132.692C100.889 129.835 106.625 113.867 101.562 97.0316C96.4987 80.196 82.5526 68.8671 70.4129 71.727C58.2731 74.587 52.5364 90.5509 57.5994 107.389C62.6623 124.227 76.6061 135.553 88.7471 132.692Z" fill="#F8D9CC"/>
<path fill-rule="evenodd" clip-rule="evenodd" d="M152.241 96.5724C159.785 87.9812 156.03 71.9536 143.854 60.7772C131.677 49.6007 115.692 47.5041 108.146 56.095C100.6 64.6859 104.357 80.7128 116.534 91.8916C128.71 103.07 144.698 105.165 152.241 96.5724Z" fill="#F8D9CC"/>
<path fill-rule="evenodd" clip-rule="evenodd" d="M213.578 94.3077C219.974 87.0237 216.792 73.4329 206.464 63.9546C196.136 54.4762 182.583 52.6973 176.189 59.9816C169.796 67.2659 172.975 80.8575 183.301 90.3368C193.628 99.8162 207.18 101.596 213.578 94.3077Z" fill="#F8D9CC"/>
<path fill-rule="evenodd" clip-rule="evenodd" d="M221.164 188.161C222.644 190.23 224.563 191.949 226.762 193.176C223.17 189.269 219.114 184.594 214.596 179.15C214.233 175.581 214.678 173.203 215.932 172.016C215.138 163.079 196.083 153.557 188.318 159.796C186.861 159.744 185.434 160.002 184.128 160.551C182.821 161.101 181.663 161.931 180.729 162.989C179.796 164.046 179.106 165.307 178.704 166.692C178.302 168.077 178.197 169.554 178.396 171.029C171.416 172.536 168.731 174.417 170.342 176.67C172.228 184.891 178.251 190.361 185.17 189.891C187.566 190.283 191.09 193.321 195.741 199.005L195.772 198.995L195.656 199.038L195.56 199.073L195.538 199.081L195.495 199.097L195.461 199.107L195.429 199.116L195.419 199.124L195.405 199.136L195.37 199.147L195.339 199.158L195.308 199.17L195.278 199.182L195.246 199.188L195.211 199.197L195.193 199.212C194.663 199.368 194.117 199.47 193.56 199.519C191.436 199.329 190.667 199.716 191.251 200.679C192.482 202.291 193.378 203.796 193.938 205.194C195.216 206.251 195.847 206.124 195.831 204.814C197.01 203.449 198.161 202.653 199.284 202.425L199.312 202.422L199.344 202.415L199.372 202.41L199.404 202.404L199.465 202.395L199.485 202.392L199.492 202.387C199.728 202.356 199.969 202.35 200.21 202.369C204.546 203.555 205.877 202.803 204.201 200.115C210.6 197.254 216.351 193.212 221.183 188.179L221.164 188.161ZM198.566 202.6C198.732 202.536 198.903 202.483 199.077 202.44C199.573 203.352 200.07 204.303 200.572 205.299C199.885 204.356 199.216 203.457 198.566 202.6ZM196.799 198.531C193.108 192.638 189.599 189.281 186.275 188.46C182.961 188.637 180.074 187.847 177.614 186.09C177.679 185.692 177.738 185.29 177.79 184.886L177.794 184.859C177.827 184.65 177.85 184.443 177.873 184.231C177.899 183.936 177.921 183.641 177.934 183.343C179.199 184.418 180.675 185.192 182.241 185.601C183.806 186.011 185.416 186.043 186.938 185.696C188.46 185.349 189.85 184.632 190.994 183.606C192.138 182.579 193.002 181.271 193.517 179.79C189.745 185.146 180.339 187.576 176.679 179.361C178.457 176.821 178.825 174.577 177.784 172.629C181.738 171.003 183.855 169.895 184.134 169.306C182.632 169.71 181.147 170.168 179.68 170.678C179.608 170.183 179.7 169.69 179.941 169.279C180.552 168.877 181.296 168.705 182.052 168.792C181.782 168.458 181.415 168.219 181.01 168.116C180.606 168.013 180.19 168.053 179.832 168.228C180.216 166.486 181.08 164.925 182.327 163.719C183.574 162.512 185.155 161.709 186.895 161.398C189.832 160.889 188.848 160.629 190.969 159.711C193.937 158.427 197.421 158.757 201.423 160.701C209.491 164.496 213.702 167.821 214.058 170.676C212.533 174.617 212.269 178.396 213.268 182.012C213.7 185.974 212.806 187.176 210.588 185.618C201.974 180.848 208.909 172.69 199.41 165.375C201.819 168.897 203.32 172.545 203.915 176.318C204.719 181.418 205.563 185.384 211.229 187.688C214.16 188.601 215.305 186.72 214.661 182.044C215.717 182.742 216.626 183.655 217.324 184.719C213.942 189.177 209.066 192.936 202.694 195.996C201.497 194.477 200.637 194.269 200.114 195.373C199.39 196.596 198.381 197.61 197.167 198.332L197.141 198.353L197.116 198.374L197.056 198.409L197.03 198.43L196.924 198.49L196.915 198.497C196.846 198.535 196.771 198.575 196.704 198.607L196.814 198.551L196.799 198.531ZM196.35 198.752C196.236 198.805 196.122 198.856 196.005 198.901C196.124 198.854 196.236 198.805 196.35 198.752ZM176.624 185.313C175.766 184.562 174.989 183.72 174.309 182.803C173.414 181.26 172.737 179.61 172.299 177.905C173.085 178.766 174.097 179.378 175.195 179.656C175.811 180.253 176.283 180.984 176.568 181.785C176.853 182.586 176.942 183.43 176.828 184.242L176.738 184.715L176.624 185.313Z" fill="#F8D9CC"/>
<path fill-rule="evenodd" clip-rule="evenodd" d="M140.8 185.93C140.149 185.828 139.5 185.95 138.959 186.278C138.418 186.605 138.017 187.117 137.821 187.731C137.625 188.346 137.646 189.026 137.881 189.66C138.115 190.295 138.549 190.847 139.111 191.227C138.835 190.232 138.847 189.2 139.147 188.258C139.448 187.316 140.022 186.506 140.8 185.93Z" fill="#F8D9CC"/>
<path fill-rule="evenodd" clip-rule="evenodd" d="M189.714 169.082C189.716 168.623 189.874 168.192 190.16 167.859C190.447 167.526 190.845 167.312 191.289 167.252C191.733 167.192 192.196 167.29 192.6 167.53C193.005 167.77 193.327 168.136 193.513 168.569C192.87 168.263 192.168 168.148 191.493 168.239C190.817 168.33 190.199 168.623 189.714 169.082Z" fill="#F8D9CC"/>
</g>
<defs>
<clipPath id="clip0_774_2162">
<rect width="200" height="200" fill="white" transform="translate(0 128.559) rotate(-40)"/>
</clipPath>
</defs>
</svg>
