<svg width="1920" height="988" viewBox="0 0 1920 988" fill="none" xmlns="http://www.w3.org/2000/svg">
<path d="M2205 0.000766916C2205 129.747 2172.81 258.222 2110.28 378.092C2047.75 497.961 1956.09 606.878 1840.54 698.622C1724.99 790.366 1587.82 863.141 1436.84 912.793C1285.87 962.445 1124.06 988 960.654 988C797.244 988 635.435 962.445 484.464 912.793C333.493 863.141 196.317 790.366 80.769 698.622C-34.7792 606.877 -126.437 497.961 -188.971 378.092C-251.505 258.222 -293.024 -0.493353 -283.691 0.000706613C-274.359 0.494767 960.654 0.000766916 960.654 0.000766916H2205Z" fill="#FFE6E4"/>
<g clip-path="url(#clip0_32_183)">
<path fill-rule="evenodd" clip-rule="evenodd" d="M1767.48 243.993C1765.4 246.889 1762.72 249.295 1759.64 251.013C1764.67 245.54 1770.35 238.993 1776.67 231.372C1777.18 226.373 1776.56 223.043 1774.81 221.381C1775.92 208.871 1802.6 195.536 1813.47 204.272C1815.51 204.199 1817.51 204.56 1819.34 205.329C1821.17 206.099 1822.79 207.261 1824.1 208.741C1825.4 210.222 1826.37 211.987 1826.93 213.926C1827.5 215.864 1827.64 217.932 1827.36 219.998C1837.14 222.105 1840.9 224.739 1838.64 227.899C1836.01 239.414 1827.57 247.068 1817.89 246.415C1814.53 246.966 1809.6 251.22 1803.08 259.178L1803.04 259.164L1803.2 259.219L1803.34 259.266L1803.37 259.277L1803.43 259.296L1803.48 259.312L1803.52 259.327L1803.53 259.336L1803.56 259.345L1803.61 259.359L1803.66 259.374L1803.7 259.389L1803.75 259.402L1803.79 259.416L1803.84 259.431L1803.87 259.44L1803.88 259.448C1804.62 259.66 1805.39 259.803 1806.17 259.873C1809.14 259.61 1810.22 260.152 1809.4 261.497C1807.68 263.751 1806.42 265.858 1805.63 267.82C1803.85 269.297 1802.97 269.119 1802.99 267.286C1801.34 265.372 1799.73 264.257 1798.15 263.942L1798.11 263.934L1798.07 263.927L1798.03 263.92L1797.99 263.911L1797.9 263.898L1797.87 263.896L1797.86 263.89L1797.86 263.884C1797.52 263.839 1797.19 263.83 1796.85 263.858C1790.78 265.523 1788.92 264.471 1791.26 260.701C1782.3 256.693 1774.25 251.034 1767.48 243.988L1767.48 243.993ZM1799.12 264.211C1798.89 264.121 1798.65 264.047 1798.41 263.988C1797.71 265.259 1797.01 266.591 1796.31 267.985C1797.27 266.667 1798.21 265.408 1799.12 264.208L1799.12 264.211ZM1801.6 258.519C1806.77 250.267 1811.69 245.565 1816.34 244.414C1820.98 244.658 1825.02 243.553 1828.46 241.097C1828.37 240.538 1828.29 239.975 1828.21 239.406L1828.2 239.368C1828.16 239.078 1828.13 238.785 1828.1 238.487C1828.05 238.076 1828.03 237.662 1828.01 237.246C1826.24 238.752 1824.17 239.837 1821.98 240.41C1819.79 240.983 1817.53 241.029 1815.4 240.544C1813.27 240.058 1811.32 239.056 1809.72 237.618C1808.12 236.181 1806.91 234.35 1806.19 232.276C1811.46 239.774 1824.64 243.175 1829.76 231.674C1827.27 228.119 1826.75 224.977 1828.21 222.247C1822.68 219.97 1819.71 218.419 1819.32 217.596C1821.43 218.159 1823.51 218.799 1825.56 219.517C1825.66 218.823 1825.53 218.134 1825.19 217.557C1824.34 216.994 1823.3 216.754 1822.24 216.875C1822.62 216.408 1823.13 216.074 1823.7 215.931C1824.26 215.788 1824.85 215.844 1825.35 216.09C1824.28 211.067 1820.27 207.35 1815.45 206.524C1811.34 205.815 1812.72 205.455 1809.75 204.168C1805.59 202.37 1800.71 202.83 1795.11 205.549C1783.81 210.866 1777.91 215.522 1777.41 219.517C1779.55 225.039 1779.92 230.331 1778.52 235.393C1777.92 240.941 1779.17 242.622 1782.28 240.439C1794.34 233.762 1784.63 222.339 1797.93 212.095C1794.56 217.024 1792.45 222.131 1791.62 227.417C1790.49 234.563 1789.31 240.117 1781.38 243.339C1777.27 244.619 1775.67 241.985 1776.57 235.439C1775.09 236.415 1773.82 237.693 1772.84 239.181C1777.58 245.419 1784.41 250.682 1793.33 254.972C1795 252.846 1796.21 252.555 1796.94 254.097C1797.95 255.812 1799.37 257.231 1801.07 258.24L1801.11 258.271L1801.12 258.284L1801.14 258.301L1801.23 258.351L1801.27 258.373L1801.42 258.459L1801.43 258.467L1801.72 258.62L1801.57 258.539L1801.6 258.519ZM1829.85 240.006C1831.05 238.957 1832.14 237.78 1833.1 236.5C1834.35 234.337 1835.3 232.026 1835.91 229.638C1834.81 230.845 1833.4 231.702 1831.86 232.09C1831 232.926 1830.33 233.95 1829.94 235.071C1829.54 236.193 1829.41 237.375 1829.57 238.513L1829.7 239.18C1829.74 239.454 1829.79 239.73 1829.84 240.005L1829.85 240.006Z" fill="white" fill-opacity="0.6"/>
<path fill-rule="evenodd" clip-rule="evenodd" d="M1754.92 247.065C1756.2 202.396 1769.82 172.104 1795.8 156.188C1833.31 133.215 1875.15 169.711 1859.84 207.436C1870.28 205.773 1880.66 208.007 1889.03 213.715C1897.39 219.424 1903.16 228.212 1905.24 238.421C1909.38 260.712 1897.6 283.675 1877.66 294.57C1858.52 305.03 1835.76 309.182 1815.59 304.179C1851.19 305.624 1876.27 296.163 1890.83 275.795C1894.26 271.244 1896.78 266.097 1898.23 260.676C1899.68 255.254 1900.04 249.674 1899.28 244.283C1895.58 218.118 1872.38 210.48 1848.48 216.413C1865.14 179.519 1845.9 148.683 1808.75 157.499C1775.06 165.498 1757.15 213.856 1754.92 247.065Z" fill="white" fill-opacity="0.6"/>
<path fill-rule="evenodd" clip-rule="evenodd" d="M1804.2 134.387C1808.1 143.456 1821.33 145.732 1833.75 139.474C1846.18 133.216 1853.09 120.79 1849.19 111.725C1845.29 102.66 1832.06 100.38 1819.64 106.638C1807.22 112.896 1800.31 125.319 1804.2 134.387Z" fill="white" fill-opacity="0.6"/>
<path fill-rule="evenodd" clip-rule="evenodd" d="M1858.41 157.631C1863.33 169.093 1880.05 171.968 1895.76 164.059C1911.46 156.149 1920.19 140.448 1915.27 128.989C1910.34 117.53 1893.62 114.653 1877.92 122.563C1862.22 130.473 1853.49 146.171 1858.41 157.631Z" fill="white" fill-opacity="0.6"/>
<path fill-rule="evenodd" clip-rule="evenodd" d="M1905.01 213.888C1914.78 219.826 1929.91 213.345 1938.8 199.413C1947.69 185.48 1946.98 169.374 1937.21 163.434C1927.44 157.494 1912.31 163.978 1903.42 177.911C1894.52 191.844 1895.24 207.952 1905.01 213.888Z" fill="white" fill-opacity="0.6"/>
<path fill-rule="evenodd" clip-rule="evenodd" d="M1917.89 273.9C1926.18 278.933 1939.01 273.44 1946.55 261.623C1954.09 249.806 1953.49 236.15 1945.2 231.119C1936.92 226.087 1924.09 231.578 1916.54 243.393C1909 255.209 1909.6 268.864 1917.89 273.9Z" fill="white" fill-opacity="0.6"/>
<path fill-rule="evenodd" clip-rule="evenodd" d="M1826.78 297.668C1825 299.486 1823.64 301.674 1822.81 304.052C1826.04 299.836 1829.94 295.031 1834.51 289.636C1837.96 288.658 1840.38 288.684 1841.77 289.713C1850.43 287.378 1856.5 266.959 1849.01 260.396C1848.81 258.953 1848.31 257.592 1847.54 256.4C1846.77 255.209 1845.75 254.213 1844.55 253.477C1843.34 252.741 1841.98 252.281 1840.55 252.125C1839.11 251.97 1837.64 252.124 1836.22 252.576C1833.53 245.963 1831.21 243.646 1829.27 245.624C1821.5 248.908 1817.16 255.789 1818.82 262.522C1818.85 264.949 1816.47 268.947 1811.68 274.515L1811.7 274.544L1811.64 274.437L1811.59 274.349L1811.57 274.328L1811.55 274.288L1811.54 274.257L1811.52 274.227L1811.51 274.219L1811.5 274.206L1811.48 274.174L1811.46 274.145L1811.45 274.117L1811.43 274.089L1811.42 274.059L1811.4 274.026L1811.38 274.011C1811.14 273.516 1810.94 272.996 1810.8 272.456C1810.62 270.332 1810.1 269.641 1809.26 270.383C1807.88 271.875 1806.56 273.019 1805.28 273.814C1804.46 275.256 1804.69 275.855 1805.98 275.612C1807.53 276.536 1808.51 277.531 1808.93 278.598L1808.94 278.625L1808.95 278.656L1808.96 278.682L1808.97 278.712L1808.99 278.771L1809 278.79L1809.01 278.796C1809.08 279.023 1809.12 279.259 1809.15 279.5C1808.73 283.976 1809.7 285.156 1812.06 283.039C1815.99 288.844 1820.97 293.806 1826.76 297.69L1826.78 297.668ZM1808.63 277.921C1808.73 278.074 1808.81 278.233 1808.88 278.397C1808.07 279.043 1807.22 279.698 1806.32 280.365C1807.13 279.525 1807.9 278.71 1808.63 277.921ZM1812.33 275.475C1817.5 270.816 1820.19 266.778 1820.42 263.362C1819.67 260.129 1819.95 257.148 1821.25 254.421C1821.66 254.415 1822.06 254.404 1822.47 254.385L1822.5 254.384C1822.71 254.38 1822.92 254.367 1823.13 254.353C1823.43 254.327 1823.72 254.298 1824.02 254.259C1823.18 255.691 1822.67 257.279 1822.54 258.892C1822.41 260.505 1822.66 262.096 1823.26 263.535C1823.87 264.973 1824.82 266.218 1826.03 267.166C1827.24 268.114 1828.67 268.738 1830.22 268.988C1824.29 266.203 1820.27 257.362 1827.72 252.331C1830.53 253.641 1832.8 253.614 1834.54 252.25C1836.83 255.862 1838.29 257.754 1838.92 257.927C1838.26 256.518 1837.55 255.135 1836.79 253.779C1837.27 253.622 1837.77 253.627 1838.22 253.793C1838.72 254.325 1839.02 255.027 1839.06 255.787C1839.34 255.464 1839.51 255.06 1839.55 254.644C1839.58 254.228 1839.47 253.825 1839.23 253.503C1841.01 253.579 1842.7 254.158 1844.11 255.177C1845.51 256.196 1846.58 257.614 1847.18 259.272C1848.2 262.077 1848.28 261.062 1849.55 262.992C1851.33 265.692 1851.61 269.181 1850.39 273.459C1848.06 282.063 1845.51 286.788 1842.76 287.635C1838.62 286.816 1834.85 287.213 1831.46 288.825C1827.64 289.938 1826.3 289.267 1827.45 286.812C1830.65 277.5 1839.89 282.913 1845.44 272.288C1842.39 275.272 1839.06 277.384 1835.45 278.625C1830.56 280.303 1826.8 281.823 1825.52 287.802C1825.13 290.848 1827.18 291.648 1831.67 290.202C1831.17 291.363 1830.43 292.417 1829.5 293.289C1824.52 290.733 1819.97 286.583 1815.85 280.839C1817.14 279.397 1817.2 278.514 1816.02 278.19C1814.69 277.69 1813.52 276.872 1812.59 275.802L1812.57 275.78L1812.54 275.76L1812.5 275.706L1812.47 275.685L1812.4 275.59L1812.39 275.583C1812.34 275.522 1812.29 275.455 1812.24 275.394L1812.32 275.492L1812.33 275.475ZM1812.04 275.071C1811.97 274.967 1811.9 274.864 1811.83 274.757C1811.9 274.866 1811.97 274.967 1812.04 275.071ZM1821.85 253.31C1822.44 252.336 1823.13 251.424 1823.92 250.595C1825.28 249.446 1826.79 248.492 1828.39 247.765C1827.68 248.688 1827.25 249.791 1827.17 250.921C1826.69 251.631 1826.05 252.223 1825.31 252.643C1824.57 253.062 1823.76 253.297 1822.94 253.325L1822.46 253.319L1821.85 253.31Z" fill="white" fill-opacity="0.6"/>
<path fill-rule="evenodd" clip-rule="evenodd" d="M1815.02 218.138C1815.01 217.479 1814.77 216.861 1814.36 216.385C1813.94 215.909 1813.37 215.603 1812.73 215.517C1812.09 215.431 1811.42 215.57 1810.84 215.911C1810.26 216.251 1809.79 216.775 1809.51 217.395C1810.44 216.949 1811.46 216.783 1812.44 216.915C1813.42 217.047 1814.32 217.472 1815.02 218.138Z" fill="white" fill-opacity="0.6"/>
<path fill-rule="evenodd" clip-rule="evenodd" d="M1840.11 263.383C1840.56 263.305 1841.01 263.386 1841.39 263.61C1841.77 263.835 1842.05 264.19 1842.18 264.616C1842.32 265.043 1842.3 265.516 1842.14 265.956C1841.97 266.396 1841.67 266.776 1841.27 267.035C1841.46 266.349 1841.45 265.637 1841.25 264.988C1841.04 264.339 1840.64 263.78 1840.11 263.383Z" fill="white" fill-opacity="0.6"/>
</g>
<g clip-path="url(#clip1_32_183)">
<path fill-rule="evenodd" clip-rule="evenodd" d="M-43.0344 561.478C-45.1094 564.375 -47.7979 566.781 -50.8777 568.498C-45.8458 563.026 -40.1665 556.479 -33.8398 548.858C-33.3293 543.859 -33.9521 540.529 -35.7083 538.867C-34.5987 526.357 -7.91488 513.021 2.95961 521.757C4.99857 521.685 6.99663 522.045 8.82595 522.815C10.6553 523.584 12.2755 524.747 13.5831 526.227C14.8906 527.707 15.8566 529.473 16.4192 531.411C16.9819 533.35 17.1288 535.418 16.8505 537.483C26.6256 539.591 30.3851 542.225 28.1289 545.385C25.4941 556.9 17.0562 564.554 7.3711 563.901C4.01813 564.452 -0.916084 568.706 -7.43154 576.663L-7.4745 576.65L-7.31187 576.705L-7.17786 576.752L-7.14321 576.763L-7.08351 576.781L-7.03921 576.798L-6.99262 576.812L-6.9816 576.822L-6.95172 576.831L-6.90519 576.845L-6.85859 576.859L-6.81317 576.875L-6.76783 576.888L-6.72124 576.902L-6.6747 576.916L-6.64251 576.925L-6.63269 576.933C-5.88985 577.146 -5.1242 577.288 -4.34516 577.358C-1.36985 577.096 -0.292607 577.637 -1.11341 578.982C-2.83617 581.236 -4.09175 583.344 -4.88008 585.305C-6.66648 586.782 -7.54874 586.604 -7.52693 584.771C-9.1774 582.857 -10.7887 581.743 -12.3607 581.428L-12.3999 581.42L-12.4438 581.412L-12.4864 581.406L-12.5292 581.397L-12.6122 581.384L-12.6441 581.382L-12.6514 581.376L-12.6587 581.37C-12.9898 581.324 -13.3275 581.315 -13.666 581.343C-19.7333 583.009 -21.5973 581.957 -19.258 578.186C-28.2167 574.179 -36.269 568.519 -43.0346 561.474L-43.0344 561.478ZM-11.3937 581.696C-11.6254 581.607 -11.8636 581.532 -12.1067 581.473C-12.8016 582.745 -13.5018 584.077 -14.2074 585.47C-13.2409 584.153 -12.3042 582.894 -11.3973 581.693L-11.3937 581.696ZM-8.91481 576.004C-3.74059 567.752 1.17155 563.051 5.8216 561.899C10.4628 562.144 14.5052 561.038 17.9487 558.582C17.8601 558.024 17.7761 557.46 17.6964 556.892L17.6887 556.854C17.6478 556.564 17.6116 556.271 17.5821 555.973C17.5402 555.562 17.5122 555.147 17.4936 554.732C15.7227 556.238 13.6559 557.322 11.4637 557.896C9.27152 558.469 7.01673 558.515 4.88529 558.03C2.75384 557.544 0.806826 556.541 -0.795213 555.104C-2.39725 553.666 -3.60842 551.835 -4.3288 549.762C0.949702 557.26 14.1248 560.66 19.2475 549.159C16.7542 545.605 16.238 542.463 17.6988 539.733C12.164 537.455 9.20045 535.905 8.80828 535.081C10.9169 535.645 12.9951 536.285 15.0428 537.002C15.1447 536.309 15.0171 535.619 14.6801 535.043C13.8241 534.48 12.7836 534.24 11.7249 534.361C12.1023 533.893 12.6174 533.56 13.1833 533.417C13.7492 533.274 14.3313 533.33 14.8314 533.575C13.7664 528.553 9.75381 524.835 4.93752 524.009C0.82454 523.301 2.20285 522.94 -0.766938 521.654C-4.9259 519.855 -9.80495 520.316 -15.4041 523.034C-26.7045 528.351 -32.6032 533.008 -33.1002 537.003C-30.9658 542.525 -30.5968 547.817 -31.9929 552.879C-32.5989 558.426 -31.3465 560.108 -28.236 557.924C-16.1759 551.247 -25.8863 539.825 -12.5829 529.58C-15.9573 534.509 -18.062 539.617 -18.8969 544.903C-20.0205 552.048 -21.1999 557.603 -29.1346 560.824C-33.2396 562.104 -34.8428 559.471 -33.944 552.924C-35.4211 553.901 -36.6934 555.178 -37.671 556.667C-32.9321 562.904 -26.1041 568.168 -17.1868 572.458C-15.5105 570.332 -14.3058 570.04 -13.5728 571.583C-12.5604 573.298 -11.1462 574.717 -9.44342 575.726L-9.40661 575.757L-9.39195 575.769L-9.37113 575.787L-9.28755 575.836L-9.24764 575.859L-9.09411 575.944L-9.08436 575.953L-8.79471 576.105L-8.94676 576.025L-8.91481 576.004ZM19.3334 557.492C20.537 556.443 21.6286 555.266 22.5869 553.985C23.8374 551.823 24.7849 549.511 25.3996 547.124C24.3 548.33 22.8822 549.187 21.344 549.575C20.4809 550.411 19.8201 551.436 19.421 552.557C19.0219 553.678 18.897 554.861 19.0576 555.999L19.1847 556.666C19.2283 556.94 19.2791 557.216 19.3263 557.49L19.3334 557.492Z" fill="white" fill-opacity="0.6"/>
<path fill-rule="evenodd" clip-rule="evenodd" d="M-55.5908 564.55C-54.3183 519.882 -40.6914 489.59 -14.7102 473.674C22.7927 450.7 64.6385 487.197 49.3282 524.921C59.7679 523.259 70.149 525.493 78.512 531.201C86.875 536.91 92.6414 545.698 94.7227 555.907C98.8696 578.198 87.0821 601.161 67.15 612.055C48.008 622.516 25.2454 626.668 5.07803 621.665C40.6801 623.11 65.7602 613.648 80.3182 593.281C83.7453 588.73 86.2637 583.583 87.7165 578.161C89.1692 572.74 89.5252 567.16 88.7622 561.768C85.0674 535.603 61.8626 527.965 37.9647 533.899C54.6299 497.004 35.3818 466.169 -1.76283 474.984C-35.4577 482.984 -53.3624 531.341 -55.5908 564.55Z" fill="white" fill-opacity="0.6"/>
<path fill-rule="evenodd" clip-rule="evenodd" d="M-6.31356 451.873C-2.41578 460.941 10.8129 463.218 23.2377 456.96C35.6625 450.702 42.572 438.276 38.6755 429.211C34.7791 420.146 21.5492 417.866 9.12672 424.124C-3.29574 430.381 -10.2078 442.805 -6.31356 451.873Z" fill="white" fill-opacity="0.6"/>
<path fill-rule="evenodd" clip-rule="evenodd" d="M47.8972 475.117C52.8195 486.578 69.5406 489.454 85.2413 481.544C100.942 473.635 109.677 457.933 104.752 446.475C99.8279 435.016 83.1103 432.138 67.4073 440.048C51.7042 447.958 42.9714 463.657 47.8972 475.117Z" fill="white" fill-opacity="0.6"/>
<path fill-rule="evenodd" clip-rule="evenodd" d="M94.4931 531.374C104.264 537.311 119.396 530.831 128.288 516.898C137.18 502.966 136.469 486.859 126.698 480.92C116.928 474.98 101.797 481.464 92.9023 495.396C84.0078 509.329 84.7214 525.438 94.4931 531.374Z" fill="white" fill-opacity="0.6"/>
<path fill-rule="evenodd" clip-rule="evenodd" d="M107.377 591.385C115.661 596.419 128.493 590.925 136.034 579.108C143.575 567.292 142.973 553.635 134.689 548.604C126.405 543.573 113.572 549.063 106.03 560.879C98.4878 572.695 99.0882 586.35 107.377 591.385Z" fill="white" fill-opacity="0.6"/>
<path fill-rule="evenodd" clip-rule="evenodd" d="M16.2637 615.154C14.4834 616.971 13.1238 619.16 12.2976 621.538C15.5209 617.322 19.4209 612.516 23.9976 607.122C27.4495 606.144 29.8687 606.169 31.2551 607.199C39.9179 604.864 45.987 584.445 38.4939 577.882C38.292 576.438 37.7909 575.077 37.0227 573.886C36.2544 572.695 35.2359 571.699 34.0324 570.963C32.8289 570.227 31.4669 569.766 30.0336 569.611C28.6002 569.456 27.1272 569.609 25.7087 570.062C23.0125 563.449 20.6946 561.131 18.7548 563.109C10.9866 566.394 6.64532 573.275 8.30938 580.008C8.34017 582.435 5.96031 586.433 1.16981 592.001L1.1853 592.03L1.12255 591.923L1.07127 591.835L1.05973 591.814L1.03666 591.774L1.02103 591.743L1.00666 591.712L0.996851 591.704L0.98213 591.692L0.965302 591.66L0.949826 591.631L0.932023 591.602L0.915432 591.575L0.90337 591.544L0.888852 591.512L0.870481 591.496C0.625701 591.002 0.429597 590.482 0.284731 589.942C0.102843 587.818 -0.411692 587.127 -1.25881 587.869C-2.6319 589.361 -3.95841 590.505 -5.23836 591.3C-6.0569 592.742 -5.82246 593.341 -4.53507 593.098C-2.98662 594.022 -2.00271 595.017 -1.58329 596.083L-1.57494 596.111L-1.56287 596.141L-1.55342 596.167L-1.54141 596.198L-1.52211 596.257L-1.51527 596.276L-1.50917 596.281C-1.43755 596.509 -1.39006 596.745 -1.36742 596.986C-1.78194 601.462 -0.810747 602.642 1.54605 600.525C5.47467 606.33 10.4543 611.292 16.2495 615.176L16.2637 615.154ZM-1.88023 595.407C-1.78823 595.559 -1.70602 595.718 -1.63406 595.882C-2.44575 596.529 -3.29583 597.184 -4.19005 597.851C-3.38053 597.011 -2.61061 596.196 -1.88023 595.407ZM1.82027 592.961C6.98269 588.301 9.67948 584.264 9.91067 580.847C9.1607 577.614 9.43739 574.634 10.7407 571.906C11.144 571.901 11.5505 571.889 11.9567 571.871L11.9849 571.869C12.1965 571.866 12.4042 571.853 12.6165 571.838C12.9118 571.813 13.2057 571.783 13.5015 571.744C12.6623 573.177 12.1564 574.765 12.0254 576.378C11.8945 577.99 12.1422 579.582 12.7483 581.02C13.3543 582.459 14.3013 583.703 15.5111 584.652C16.7209 585.6 18.1589 586.224 19.7065 586.473C13.7769 583.689 9.75106 574.848 17.2054 569.817C20.0155 571.127 22.2895 571.1 24.0271 569.736C26.3153 573.347 27.7737 575.24 28.4024 575.413C27.7431 574.004 27.0349 572.621 26.2777 571.265C26.7528 571.108 27.2539 571.112 27.7009 571.279C28.203 571.811 28.5008 572.513 28.5465 573.273C28.8292 572.95 29.0004 572.546 29.0315 572.13C29.0625 571.714 28.9512 571.311 28.7166 570.989C30.4989 571.064 32.1864 571.644 33.5909 572.662C34.9953 573.681 36.0612 575.099 36.6697 576.758C37.6809 579.562 37.7656 578.548 39.0387 580.478C40.8183 583.177 41.0984 586.666 39.8791 590.945C37.5423 599.549 34.9991 604.274 32.2493 605.12C28.1032 604.302 24.3362 604.699 20.9482 606.311C17.1215 607.423 15.7827 606.752 16.9319 604.297C20.1339 594.986 29.3713 600.399 34.9264 589.774C31.8758 592.757 28.5442 594.87 24.9315 596.11C20.0484 597.788 16.2897 599.308 15.0047 605.288C14.6139 608.333 16.6651 609.134 21.1584 607.688C20.6549 608.849 19.9132 609.903 18.9862 610.774C14.0092 608.219 9.46058 604.069 5.34056 598.325C6.62893 596.882 6.68422 595.999 5.50634 595.676C4.17546 595.176 3.00252 594.358 2.08057 593.287L2.05484 593.266L2.0303 593.245L1.98537 593.192L1.95964 593.17L1.8822 593.076L1.87365 593.069C1.82484 593.007 1.77223 592.941 1.72933 592.88L1.80342 592.978L1.82027 592.961ZM1.52452 592.556C1.45254 592.453 1.38289 592.349 1.31781 592.243C1.38535 592.351 1.45254 592.453 1.52452 592.556ZM11.3338 570.796C11.9245 569.821 12.6191 568.91 13.4036 568.08C14.768 566.931 16.2758 565.978 17.8789 565.251C17.1672 566.174 16.7402 567.277 16.6571 568.407C16.1763 569.117 15.5377 569.709 14.7989 570.128C14.06 570.548 13.2439 570.783 12.424 570.811L11.9425 570.805L11.3338 570.796Z" fill="white" fill-opacity="0.6"/>
<path fill-rule="evenodd" clip-rule="evenodd" d="M4.50656 535.623C4.49393 534.964 4.26056 534.347 3.84447 533.871C3.42839 533.395 2.85412 533.089 2.21517 533.003C1.57623 532.917 0.910326 533.055 0.325856 533.396C-0.258614 533.737 -0.727166 534.26 -1.00348 534.88C-0.0718078 534.435 0.947322 534.268 1.92707 534.4C2.90683 534.532 3.80388 534.958 4.50656 535.623Z" fill="white" fill-opacity="0.6"/>
<path fill-rule="evenodd" clip-rule="evenodd" d="M29.595 580.868C30.0468 580.791 30.4991 580.871 30.8766 581.096C31.2541 581.32 31.5341 581.675 31.6702 582.102C31.8062 582.529 31.7901 583.001 31.6244 583.441C31.4587 583.881 31.1535 584.262 30.7595 584.521C30.9496 583.835 30.9407 583.123 30.7336 582.474C30.5266 581.824 30.1307 581.266 29.595 580.868Z" fill="white" fill-opacity="0.6"/>
</g>
<circle cx="1410" cy="510" r="297" fill="url(#paint0_linear_32_183)"/>
<g opacity="0.4" clip-path="url(#clip2_32_183)">
<path d="M1488.29 264C1518.72 264 1543.39 311.239 1543.39 351.27C1543.39 391.3 1518.72 423.75 1488.29 423.75C1457.85 423.75 1433.19 391.3 1433.19 351.27C1433.19 311.239 1457.85 264 1488.29 264Z" fill="white"/>
<path d="M1331.71 264C1362.15 264 1386.82 311.239 1386.82 351.27C1386.82 391.3 1362.15 423.75 1331.71 423.75C1301.28 423.75 1276.61 391.3 1276.61 351.27C1276.61 311.239 1301.28 264 1331.71 264Z" fill="white"/>
<path d="M1166.68 475.101C1153.74 442.087 1159.41 394.584 1185.21 384.067C1211.01 373.551 1247.18 404.002 1260.11 437.021C1273.04 470.041 1262.6 505.329 1236.79 515.846C1210.99 526.362 1179.6 508.121 1166.68 475.101Z" fill="white"/>
<path d="M1653.32 475.101C1640.38 508.115 1609.01 526.362 1583.21 515.846C1557.41 505.329 1546.96 470.041 1559.89 437.021C1572.81 404.002 1608.99 373.551 1634.79 384.067C1660.59 394.584 1666.25 442.081 1653.32 475.101Z" fill="white"/>
<path d="M1607.15 657.498C1601.27 630.451 1587.15 606.063 1571.57 583.464C1535.05 530.51 1476.58 477.04 1410 477.04C1343.7 477.04 1284.95 530.498 1248.43 583.464C1232.85 606.063 1218.76 630.451 1212.85 657.498C1206.94 684.545 1210.17 714.78 1226.59 736.731C1243.01 758.682 1274.11 769.666 1298.42 757.775C1312.88 750.711 1324.59 736.449 1340.54 735.08C1355.18 733.82 1368.12 743.886 1380.34 752.295C1389.16 758.382 1399.81 763.91 1410 763.982C1420.19 763.91 1430.84 758.382 1439.66 752.295C1451.88 743.892 1464.82 733.82 1479.46 735.08C1495.41 736.449 1507.11 750.687 1521.58 757.775C1545.89 769.666 1576.99 758.7 1593.41 736.731C1609.83 714.762 1613.06 684.539 1607.15 657.498ZM1467.99 624.923C1460.48 638.926 1448.63 651.262 1438.62 660.866C1433.25 666.009 1427.6 670.833 1421.69 675.313L1421.66 675.343C1418.28 677.876 1414.19 679.242 1410 679.242C1405.81 679.242 1401.72 677.876 1398.34 675.343L1398.31 675.313C1392.4 670.833 1386.75 666.009 1381.38 660.866C1371.38 651.262 1359.52 638.926 1352.01 624.923C1345.8 613.35 1342.56 600.649 1345.77 587.407C1348.85 574.718 1358.66 563.565 1370.7 562.011C1384.62 560.21 1400.82 570.204 1410 581.681C1419.18 570.204 1435.38 560.21 1449.3 562.011C1461.34 563.565 1471.15 574.718 1474.23 587.407C1477.44 600.637 1474.2 613.35 1467.99 624.923Z" fill="white"/>
</g>
<defs>
<linearGradient id="paint0_linear_32_183" x1="1407.68" y1="807" x2="1412.32" y2="213" gradientUnits="userSpaceOnUse">
<stop offset="0.20985" stop-color="#FFE6E4"/>
<stop offset="1" stop-color="#F8D9CC"/>
</linearGradient>
<clipPath id="clip0_32_183">
<rect width="200" height="200" fill="white" transform="translate(1847.07 69.5143) rotate(40)"/>
</clipPath>
<clipPath id="clip1_32_183">
<rect width="200" height="200" fill="white" transform="translate(36.5575 387) rotate(40)"/>
</clipPath>
<clipPath id="clip2_32_183">
<rect width="500" height="500" fill="white" transform="translate(1160 264)"/>
</clipPath>
</defs>
</svg>
