<svg width="594" height="594" viewBox="0 0 594 594" fill="none" xmlns="http://www.w3.org/2000/svg">
<circle cx="297" cy="297" r="297" fill="url(#paint0_linear_609_438)"/>
<g opacity="0.4" clip-path="url(#clip0_609_438)">
<path d="M375.288 51C405.724 51 430.394 98.2395 430.394 138.27C430.394 178.3 405.724 210.75 375.288 210.75C344.853 210.75 320.188 178.3 320.188 138.27C320.188 98.2395 344.853 51 375.288 51Z" fill="white"/>
<path d="M218.712 51C249.147 51 273.818 98.2395 273.818 138.27C273.818 178.3 249.147 210.75 218.712 210.75C188.276 210.75 163.606 178.3 163.606 138.27C163.606 98.2395 188.276 51 218.712 51Z" fill="white"/>
<path d="M53.6764 262.101C40.7353 229.087 46.4117 181.584 72.2117 171.067C98.0117 160.551 134.182 191.002 147.112 224.021C160.041 257.041 149.6 292.329 123.794 302.846C97.9882 313.362 66.6 295.121 53.6764 262.101Z" fill="white"/>
<path d="M540.324 262.101C527.382 295.115 496.006 313.362 470.206 302.846C444.406 292.329 433.965 257.041 446.888 224.021C459.812 191.002 495.988 160.551 521.788 171.067C547.588 181.584 553.247 229.081 540.324 262.101Z" fill="white"/>
<path d="M494.153 444.498C488.271 417.451 474.153 393.063 458.571 370.464C422.053 317.51 363.576 264.04 297 264.04C230.7 264.04 171.953 317.498 135.429 370.464C119.847 393.063 105.759 417.451 99.8471 444.498C93.9353 471.545 97.1706 501.78 113.588 523.731C130.006 545.682 161.106 556.666 185.424 544.775C199.882 537.711 211.588 523.449 227.535 522.08C242.182 520.82 255.124 530.886 267.335 539.295C276.159 545.382 286.806 550.91 297 550.982C307.194 550.91 317.835 545.382 326.665 539.295C338.876 530.892 351.818 520.82 366.465 522.08C382.412 523.449 394.112 537.687 408.576 544.775C432.894 556.666 463.994 545.7 480.412 523.731C496.829 501.762 500.065 471.539 494.153 444.498ZM354.994 411.923C347.482 425.926 335.629 438.262 325.618 447.866C320.253 453.009 314.603 457.833 308.694 462.313L308.659 462.343C305.278 464.876 301.194 466.242 297 466.242C292.806 466.242 288.722 464.876 285.341 462.343L285.306 462.313C279.397 457.833 273.747 453.009 268.382 447.866C258.382 438.262 246.518 425.926 239.006 411.923C232.8 400.35 229.559 387.649 232.771 374.407C235.853 361.718 245.665 350.565 257.7 349.011C271.618 347.21 287.823 357.204 297 368.681C306.176 357.204 322.382 347.21 336.3 349.011C348.335 350.565 358.147 361.718 361.229 374.407C364.441 387.637 361.2 400.35 354.994 411.923Z" fill="white"/>
</g>
<defs>
<linearGradient id="paint0_linear_609_438" x1="294.678" y1="594" x2="299.322" y2="6.59668e-06" gradientUnits="userSpaceOnUse">
<stop offset="0.20985" stop-color="#FFE6E4"/>
<stop offset="1" stop-color="#F8D9CC"/>
</linearGradient>
<clipPath id="clip0_609_438">
<rect width="500" height="500" fill="white" transform="translate(47 51)"/>
</clipPath>
</defs>
</svg>
