<svg width="60" height="61" viewBox="0 0 60 61" fill="none" xmlns="http://www.w3.org/2000/svg">
<path d="M45.3803 26.3286L44.8841 27.0091L29.4721 15.0886C34.0021 9.24814 37.4903 4.73389 37.4903 4.73389C38.3526 3.56137 39.5392 3.68944 40.1361 5.01379L40.8356 6.57228C41.4289 7.89663 43.0749 8.71971 44.4904 8.39778L57.8259 5.38676C59.2413 5.06671 60.2026 5.97396 59.9628 7.40613L58.954 13.3874C58.716 14.8178 57.3573 16.239 55.9364 16.5482L48.4748 18.1578C47.0539 18.4651 47.0832 18.6791 48.5334 18.6388L52.6972 18.5108C54.1493 18.4705 54.8231 19.4747 54.1932 20.746C53.5633 22.0209 51.8788 23.2739 50.4524 23.5409L49.5276 23.711C48.0994 23.9763 46.2335 25.1524 45.3803 26.3286Z" fill="#2B2B2B"/>
<path d="M0.431561 29.1454C0.936989 27.0273 1.89828 28.0571 2.29929 28.7832C2.62519 29.3741 5.66292 35.6078 10.4805 39.3593C13.4212 35.7267 20.5843 26.5371 26.7952 18.5383L42.3278 30.5521L40.3136 33.4238C42.6574 39.7033 47.2405 52.6736 47.2405 52.6736C47.8209 54.307 46.9585 56.1032 45.3087 56.6885C43.6662 57.2775 42.1319 56.3995 41.4233 54.7387L34.8223 41.2599L32.6599 44.3402C33.4802 45.2419 34.0094 46.4181 34.0332 47.7278L34.0625 49.1417C34.1871 49.1417 34.3151 49.1417 34.4323 49.1417C41.2842 49.1417 41.665 56.7454 34.8132 56.7454C32.9089 56.7454 23.7738 56.7454 23.7738 56.7454C23.7738 56.7454 20.7269 56.7454 13.4961 56.7454C6.36956 56.7454 4.12835 51.1959 6.36781 45.5055C3.58273 42.6463 -1.51129 36.2352 0.431561 29.1454Z" fill="#2B2B2B"/>
</svg>
