<svg width="100" height="100" viewBox="0 0 100 100" fill="none" xmlns="http://www.w3.org/2000/svg">
<path d="M4.5764 45.4238C10.6783 51.5257 20.572 51.5257 26.6739 45.4238L27.2095 44.8876L55.1126 72.7903L54.5765 73.3266C48.4746 79.4285 48.4746 89.3217 54.5765 95.4236C60.6784 101.525 70.5717 101.525 76.6736 95.4236C79.7245 92.3729 81.2502 88.3742 81.2502 84.3754V81.2504H84.3479C88.3557 81.2573 92.3657 79.7316 95.4235 76.6735C101.525 70.5716 101.525 60.6785 95.4235 54.5765C89.3216 48.4745 79.4284 48.4745 73.3265 54.5765L72.7902 55.1129L44.8874 27.2099L45.4236 26.6737C51.5256 20.5717 51.5256 10.6784 45.4236 4.57648C39.3217 -1.52549 29.4282 -1.52549 23.3264 4.57648C20.262 7.64097 18.7364 11.6086 18.7501 15.6251V18.7501H15.6251C11.6264 18.7501 7.62765 20.2755 4.5764 23.3265C-1.52547 29.4285 -1.52547 39.3218 4.5764 45.4238Z" fill="#FF6F3F"/>
</svg>
