<svg width="60" height="61" viewBox="0 0 60 61" fill="none" xmlns="http://www.w3.org/2000/svg">
<path d="M59.4257 23.8026L52.7817 16.3381C53.1563 15.4592 53.3541 14.4906 53.3541 13.4881C53.3541 11.723 52.7413 10.0625 51.6307 8.81633L46.0857 2.58586C44.9751 1.33682 43.4969 0.649902 41.9269 0.649902C40.3557 0.649902 38.8775 1.33682 37.7669 2.58586L15.5853 27.5052C14.4734 28.7528 13.8619 30.4134 13.8619 32.177C13.8619 33.9421 14.4747 35.6026 15.5853 36.8488L21.1304 43.0794C22.241 44.3284 23.7193 45.0153 25.2892 45.0153C26.1822 45.0153 27.0449 44.7929 27.8274 44.372L34.4724 51.8366C34.8553 52.2668 35.357 52.4819 35.8586 52.4819C36.3601 52.4819 36.8619 52.2668 37.2448 51.8366C38.0106 50.9763 38.0106 49.5823 37.2448 48.7221L30.8354 41.5222L33.6084 38.4067L40.0171 45.6059C40.4001 46.0361 40.9018 46.2512 41.4033 46.2512C41.9049 46.2512 42.4067 46.0361 42.7896 45.6059C43.5554 44.7456 43.5554 43.3516 42.7896 42.4913L36.3808 35.292L39.1536 32.1769L45.5633 39.3769C45.9463 39.8071 46.448 40.0222 46.9495 40.0222C47.4511 40.0222 47.9529 39.8071 48.3358 39.3769C49.1016 38.5166 49.1016 37.1226 48.3358 36.2623L41.9259 29.0623L44.6988 25.9472L51.1083 33.1477C51.4913 33.578 51.993 33.7931 52.4945 33.7931C52.9961 33.7931 53.4979 33.578 53.8808 33.1477C54.6466 32.2874 54.6466 30.8935 53.8808 30.0332L47.4713 22.8325L50.244 19.7174L56.6533 26.9173C57.0363 27.3475 57.538 27.5626 58.0395 27.5626C58.5411 27.5626 59.0429 27.3475 59.4258 26.9173C60.1915 26.0567 60.1915 24.6629 59.4257 23.8026Z" fill="#2B2B2B"/>
<path d="M11.426 38.4065L1.71961 49.3102C-0.572948 51.8856 -0.572948 56.077 1.71832 58.6539C1.71961 58.6539 1.71961 58.6539 1.71961 58.6539C4.01065 61.2305 7.74591 61.2322 10.0386 58.6539L19.7439 47.7514L11.426 38.4065Z" fill="#2B2B2B"/>
</svg>
