<svg width="70" height="71" viewBox="0 0 70 71" fill="none" xmlns="http://www.w3.org/2000/svg">
<g opacity="0.6" clip-path="url(#clip0_40_98)">
<path d="M45.9604 0.655151C50.2213 0.655151 53.6752 7.26174 53.6752 12.8601C53.6752 18.4585 50.2213 22.9967 45.9604 22.9967C41.6994 22.9967 38.2464 18.4585 38.2464 12.8601C38.2464 7.26174 41.6994 0.655151 45.9604 0.655151Z" fill="white"/>
<path d="M24.0397 0.655151C28.3006 0.655151 31.7545 7.26174 31.7545 12.8601C31.7545 18.4585 28.3006 22.9967 24.0397 22.9967C19.7787 22.9967 16.3249 18.4585 16.3249 12.8601C16.3249 7.26174 19.7787 0.655151 24.0397 0.655151Z" fill="white"/>
<path d="M0.934726 30.1783C-0.877039 25.5612 -0.082342 18.9177 3.52966 17.4469C7.14166 15.9762 12.2055 20.2348 14.0157 24.8527C15.8258 29.4706 14.364 34.4058 10.7512 35.8765C7.13837 37.3473 2.74402 34.7962 0.934726 30.1783Z" fill="white"/>
<path d="M69.0653 30.1783C67.2536 34.7953 62.8609 37.3473 59.2489 35.8765C55.6369 34.4058 54.1751 29.4706 55.9844 24.8527C57.7937 20.2348 62.8584 15.9762 66.4704 17.4469C70.0824 18.9177 70.8746 25.5604 69.0653 30.1783Z" fill="white"/>
<path d="M62.6014 55.6871C61.7779 51.9045 59.8014 48.4938 57.6199 45.3332C52.5074 37.9274 44.3207 30.4495 35 30.4495C25.718 30.4495 17.4934 37.9257 12.3801 45.3332C10.1986 48.4938 8.22626 51.9045 7.39862 55.6871C6.57097 59.4698 7.02391 63.6982 9.32238 66.7681C11.6209 69.838 15.9749 71.3742 19.3793 69.7113C21.4036 68.7232 23.0424 66.7286 25.275 66.5372C27.3256 66.3609 29.1373 67.7687 30.847 68.9448C32.0823 69.796 33.5728 70.5692 35 70.5793C36.4272 70.5692 37.917 69.796 39.1531 68.9448C40.8627 67.7696 42.6745 66.3609 44.7251 66.5372C46.9577 66.7286 48.5957 68.7198 50.6207 69.7113C54.0252 71.3742 58.3792 69.8405 60.6777 66.7681C62.9761 63.6956 63.4291 59.4689 62.6014 55.6871ZM43.1192 51.1314C42.0676 53.0898 40.4081 54.8149 39.0065 56.1581C38.2555 56.8775 37.4644 57.5521 36.6372 58.1787L36.6323 58.1829C36.159 58.5371 35.5872 58.7281 35 58.7281C34.4129 58.7281 33.8411 58.5371 33.3678 58.1829L33.3628 58.1787C32.5357 57.5521 31.7446 56.8775 30.9936 56.1581C29.5936 54.8149 27.9325 53.0898 26.8808 51.1314C26.012 49.5129 25.5583 47.7366 26.0079 45.8847C26.4394 44.1101 27.8131 42.5504 29.498 42.3329C31.4465 42.0811 33.7153 43.4788 35 45.0839C36.2847 43.4788 38.5536 42.0811 40.502 42.3329C42.187 42.5504 43.5606 44.1101 43.9921 45.8847C44.4418 47.7349 43.988 49.5129 43.1192 51.1314Z" fill="white"/>
</g>
<defs>
<clipPath id="clip0_40_98">
<rect width="70" height="69.9266" fill="white" transform="translate(3.05176e-05 0.655151)"/>
</clipPath>
</defs>
</svg>
