<svg width="117" height="117" viewBox="0 0 117 117" fill="none" xmlns="http://www.w3.org/2000/svg">
<g clip-path="url(#clip0_379_426)">
<path d="M87.1026 57.4096C88.8286 57.2178 88.2774 53.2736 84.8068 40.5941C81.1243 27.1746 79.8229 24.3482 77.9548 25.2697C75.4013 26.5686 84.3033 57.648 87.1026 57.4096Z" fill="#FF6F3F"/>
<path d="M29.2713 78.3732C30.2125 83.477 31.2096 83.9721 43.0428 85.2383C55.2634 86.5589 57.5428 86.3657 57.9803 84.0992C58.7567 79.9862 55.6327 78.6007 40.5987 76.2145C29.5059 74.4603 28.5766 74.6062 29.2713 78.3732Z" fill="#FF6F3F"/>
<path d="M41.6389 46.925C42.267 50.6038 43.2437 51.8062 48.3978 55.3312C63.7266 65.7292 73.8502 74.3709 72.4838 67.2346C71.946 64.3182 69.2959 62.0917 51.7705 49.3335C42.049 42.3266 40.8309 41.9978 41.6389 46.925Z" fill="#FF6F3F"/>
</g>
<defs>
<clipPath id="clip0_379_426">
<rect width="82.9283" height="82.9593" fill="white" transform="matrix(-0.602335 -0.798243 0.799027 -0.601295 50 116.08)"/>
</clipPath>
</defs>
</svg>
