<svg width="118" height="118" viewBox="0 0 118 118" fill="none" xmlns="http://www.w3.org/2000/svg">
<g clip-path="url(#clip0_379_433)">
<path d="M63.3372 30.8633C63.7676 29.1832 67.602 30.2772 79.6921 35.474C92.4865 40.9834 95.1081 42.6637 93.9343 44.3829C92.291 46.7273 62.7112 33.5985 63.3372 30.8633Z" fill="#FF6F3F"/>
<path d="M34.5008 85.1367C29.5709 83.4956 29.2187 82.4406 29.6099 70.5622C30.0012 58.2931 30.51 56.0659 32.8184 55.9487C37.005 55.7533 37.9441 59.0355 38.2179 74.2352C38.4136 85.4493 38.1396 86.348 34.5008 85.1367Z" fill="#FF6F3F"/>
<path d="M67.4064 77.283C63.8459 76.1498 62.7896 75.0166 60.0115 69.429C51.834 52.8228 44.6737 41.6086 51.56 43.953C54.3771 44.8908 56.2162 47.8214 66.4282 66.9284C72.0234 77.5174 72.1799 78.7678 67.4064 77.283Z" fill="#FF6F3F"/>
</g>
<defs>
<clipPath id="clip0_379_433">
<rect width="82.9438" height="82.9438" fill="white" transform="matrix(0.707586 0.706628 0.707586 -0.706628 -0.00488281 59.3896)"/>
</clipPath>
</defs>
</svg>
