<svg width="60" height="61" viewBox="0 0 60 61" fill="none" xmlns="http://www.w3.org/2000/svg">
<path d="M30.0373 35.821C24.2623 35.821 19.5654 39.7195 19.5654 44.5125V44.656C19.5654 47.179 22.0311 49.0017 25.4248 49.0017H34.7529C38.0811 49.0017 40.4998 47.1706 40.4998 44.656V44.5125C40.4998 39.7195 35.8029 35.821 30.0373 35.821Z" fill="#44433F"/>
<path d="M24.7219 29.3065C25.2938 29.239 25.6781 28.9183 25.9031 28.6568C26.3813 28.0998 26.5969 27.3066 26.475 26.4797C26.2875 25.1549 25.2469 24.1169 24.1594 24.1169C24.0938 24.1169 24.0281 24.1169 23.9719 24.1254C23.4 24.1929 23.0156 24.5135 22.7906 24.7751C22.3125 25.3321 22.0969 26.1253 22.2188 26.9522C22.4156 28.3614 23.5594 29.4415 24.7219 29.3065Z" fill="#44433F"/>
<path d="M15.5249 29.6947C15.2155 29.5597 14.7468 29.4416 14.2499 29.6019C13.1811 29.9479 12.7218 31.4077 13.2468 32.7747C13.5561 33.5848 14.1561 34.243 14.8593 34.5468C15.1686 34.6818 15.6374 34.7999 16.1343 34.6396C17.203 34.2936 17.6624 32.8338 17.1468 31.4668C16.8374 30.6567 16.228 29.9985 15.5249 29.6947Z" fill="#44433F"/>
<path d="M35.6906 29.3066C36.8531 29.4585 38.0156 28.4037 38.2499 27.003C38.3906 26.1844 38.1937 25.3828 37.7249 24.809C37.5093 24.5474 37.1249 24.2099 36.5624 24.1424C36.4874 24.1339 36.4124 24.1255 36.3374 24.1255C35.2593 24.1255 34.2187 25.1381 34.0031 26.446C33.8624 27.2645 34.0593 28.0662 34.5281 28.64C34.7437 28.9016 35.1281 29.2307 35.6906 29.3066Z" fill="#44433F"/>
<path d="M29.953 2.82715L7.22803 20.4126C7.26553 20.5139 7.29365 20.6236 7.29365 20.7332V56.7986H52.7812V20.1679L29.953 2.82715ZM31.8655 26.1506C32.278 23.6613 34.5374 21.8977 36.8812 22.2015C37.8937 22.3365 38.8124 22.8428 39.4687 23.636C40.2749 24.6233 40.6124 25.9481 40.3968 27.2814C40.0124 29.5766 38.0624 31.2643 35.9155 31.2643C35.7374 31.2643 35.5593 31.2558 35.3812 31.2305C34.3687 31.0955 33.4499 30.5892 32.7937 29.796C31.978 28.8172 31.6405 27.4839 31.8655 26.1506ZM21.0749 23.5938C21.7499 22.8091 22.678 22.3197 23.6999 22.2015C26.0624 21.9315 28.2655 23.7457 28.6312 26.235C28.8187 27.5683 28.453 28.8847 27.6187 29.8551C26.9437 30.6398 26.0155 31.1292 24.9937 31.2474C24.8343 31.2643 24.6843 31.2727 24.5343 31.2727C22.3593 31.2727 20.3999 29.5428 20.0718 27.2139C19.8749 25.8806 20.2405 24.5558 21.0749 23.5938ZM15.6468 36.6648C15.0655 36.6648 14.4843 36.5466 13.9218 36.3019C12.6843 35.7703 11.6905 34.7155 11.1937 33.3992C10.2843 31.0027 11.3249 28.4712 13.5093 27.7624C14.4468 27.4586 15.4968 27.5177 16.453 27.9311C17.6905 28.4627 18.6843 29.5175 19.1812 30.8339C20.0905 33.2304 19.0499 35.7619 16.8655 36.4791C16.4812 36.6057 16.0687 36.6648 15.6468 36.6648ZM42.6655 44.6559C42.6655 48.3012 39.3374 50.9508 34.753 50.9508H25.4249C20.8499 50.9508 17.3999 48.2421 17.3999 44.6559V44.5124C17.3999 38.6478 23.0718 33.8717 30.0374 33.8717C37.003 33.8717 42.6749 38.6478 42.6749 44.5124V44.6559H42.6655ZM49.7718 33.4076C49.2749 34.7155 48.2812 35.7788 47.0437 36.3104C46.4812 36.5466 45.8999 36.6732 45.3186 36.6732C44.8968 36.6732 44.4843 36.6057 44.0905 36.4791C41.8968 35.7619 40.8562 33.2304 41.7749 30.8339C42.2718 29.526 43.2655 28.4627 44.503 27.9311C45.4687 27.5177 46.5093 27.4586 47.4468 27.7624C49.6405 28.4796 50.6812 31.0111 49.7718 33.4076Z" fill="#44433F"/>
<path d="M46.7156 29.6018C46.5469 29.5512 46.3875 29.5259 46.2281 29.5259C45.9187 29.5259 45.6469 29.6103 45.4406 29.6946C44.7375 29.9984 44.1281 30.6651 43.8281 31.4667C43.3031 32.8421 43.7625 34.2935 44.8406 34.6395C45.3375 34.7998 45.8062 34.6733 46.1156 34.5467C46.8187 34.2429 47.4281 33.5763 47.7281 32.7746C48.2437 31.3992 47.7844 29.9478 46.7156 29.6018Z" fill="#44433F"/>
</svg>
