<svg width="100" height="8" viewBox="0 0 100 8" fill="none" xmlns="http://www.w3.org/2000/svg">
<path d="M0.333333 3.97571C0.333333 5.44847 1.52724 6.64237 3 6.64237C4.47276 6.64237 5.66667 5.44847 5.66667 3.97571C5.66667 2.50295 4.47276 1.30904 3 1.30904C1.52724 1.30904 0.333333 2.50295 0.333333 3.97571ZM99.3536 4.32926C99.5488 4.134 99.5488 3.81742 99.3536 3.62215L96.1716 0.440174C95.9763 0.244912 95.6597 0.244912 95.4645 0.440174C95.2692 0.635436 95.2692 0.952019 95.4645 1.14728L98.2929 3.97571L95.4645 6.80414C95.2692 6.9994 95.2692 7.31598 95.4645 7.51124C95.6597 7.7065 95.9763 7.7065 96.1716 7.51124L99.3536 4.32926ZM3 4.47571H99V3.47571H3V4.47571Z" fill="#2B2B2B"/>
</svg>
