<svg width="60" height="61" viewBox="0 0 60 61" fill="none" xmlns="http://www.w3.org/2000/svg">
<path d="M42.4777 38.0371V38.0375L42.479 38.0369L42.4777 38.0371Z" fill="#2B2B2B"/>
<path d="M53.2219 40.2573C51.1826 40.2355 49.1479 40.1635 47.1133 40.0838C47.0914 39.2758 46.7902 38.4219 46.4342 37.8218C45.8508 36.8389 44.776 36.0756 43.5959 35.7812C42.3957 35.4822 41.2425 35.8418 40.5269 36.7595C39.8711 37.6 40.0413 38.8863 40.5197 39.8483C38.527 39.791 36.5321 39.7539 34.5329 39.7897C33.9169 39.8008 33.4491 40.2381 33.4294 40.793C33.3406 43.3413 33.2174 46.0631 33.7195 48.5817C33.7421 48.697 33.8231 48.9585 33.9412 49.2399C33.4907 49.0689 32.9954 48.9614 32.4624 48.9211C32.8428 44.963 30.9987 41.2138 27.6768 38.8023C27.4412 38.5714 27.1729 38.3594 26.9233 38.1363C26.9419 38.0819 26.9577 38.0256 26.9548 37.9611C26.9079 36.8542 27.0372 35.7603 27.068 34.6593C31.1799 34.3757 34.2471 30.6746 32.933 26.9533C34.1149 25.4377 34.6239 23.5991 33.6633 21.8718C32.22 19.275 29.5958 19.02 27.0347 19.7068C25.5097 19.8019 23.9739 20.3696 22.816 21.2677C22.2154 20.7046 21.5675 20.1943 20.8688 19.7671C20.8147 19.7326 20.7595 19.6994 20.7051 19.6655C20.5851 19.5951 20.4662 19.5235 20.343 19.458C17.924 18.1268 14.82 17.821 12.4673 19.4805C9.5555 21.5341 9.59597 25.227 10.9978 28.1442C11.2442 29.4511 11.8688 30.6772 12.9948 31.6669C13.9844 32.5367 15.2315 33.045 16.5477 33.2342C16.6351 33.8357 16.6827 34.4411 16.7389 35.0462C16.6372 35.9251 16.7787 37.1708 16.947 38.3096C16.952 38.4626 16.9642 38.6157 16.9685 38.7684C16.9846 39.367 16.8073 40.3889 16.8485 41.2812C16.5838 41.5446 16.2221 41.8859 15.8124 42.2666C14.8142 42.6763 14.0406 43.1931 13.4192 43.7848C13.1166 43.2683 12.5915 42.9694 12.0461 42.6232C11.5056 42.2803 10.9487 41.9585 10.3764 41.6612C9.92439 41.4264 9.44698 41.2118 8.95918 41.02C7.39191 39.9636 5.79958 39.3269 4.77634 40.485C4.30824 41.0145 4.13024 41.6476 4.12522 42.2995C3.61486 44.2593 5.28456 46.6874 6.98577 47.6676C8.06667 48.2909 9.55944 48.4886 10.7503 48.0161C9.28116 50.7796 8.20527 54.4035 9.5795 56.9924C9.43301 57.3474 9.28223 57.7014 9.09205 58.0427C8.70382 58.7389 9.18875 59.4713 10.0297 59.5283C10.9387 59.5902 11.9021 59.6657 12.8945 59.7387C16.5821 61.2474 21.6932 60.5365 25.2368 59.5495C25.5233 59.4697 25.8463 59.3271 26.1669 59.144C27.2073 58.8503 28.2012 58.4725 29.1159 57.9746C29.2326 58.0541 29.3727 58.1098 29.5492 58.1049C29.6563 58.1019 29.7505 58.0892 29.8537 58.0831C30.8346 58.3084 31.8149 58.1453 32.3747 57.4272C32.9861 57.0804 33.4037 56.6297 33.6343 56.1311C35.4032 55.9441 36.4415 55.2388 36.8792 54.352C36.9314 54.354 36.9701 54.3725 37.0256 54.369C42.1443 54.0179 47.2698 54.0449 52.3924 53.8225C52.9608 53.7978 53.4311 53.4102 53.4336 52.8758C53.4518 48.9579 53.7953 45.065 54.228 41.1692C54.282 40.6703 53.7273 40.2629 53.2219 40.2573ZM42.4466 38.0533C42.4652 38.0445 42.4577 38.0465 42.4695 38.0403C42.4724 38.0396 42.4753 38.039 42.4781 38.038C42.4788 38.037 42.4792 38.0354 42.4799 38.0344C42.481 38.0338 42.4817 38.0334 42.4824 38.0331C42.4813 38.0351 42.4813 38.0357 42.4806 38.0377C42.4455 38.1093 42.5154 38.0588 42.5408 38.0227C42.563 38.0178 42.5848 38.0106 42.607 38.0064C42.688 38.0005 42.7693 38.0005 42.8502 38.0031C42.9419 38.0194 43.0325 38.0419 43.1221 38.066C43.1787 38.0852 43.1984 38.0904 43.2077 38.0924C43.2474 38.1103 43.2883 38.1266 43.3273 38.1455C43.4011 38.1796 43.8076 38.4317 43.6582 38.3236C43.977 38.5548 44.1457 38.7453 44.2954 38.958C44.5074 39.2585 44.5765 39.4637 44.6664 39.8636C44.6747 39.9001 44.6714 39.947 44.6746 39.9874C43.924 39.9571 43.1726 39.9362 42.4215 39.9089C42.3818 39.4738 42.2962 39.0485 42.3098 38.6082C42.3173 38.3571 42.3922 38.1725 42.4778 38.0383C42.4634 38.0465 42.4674 38.0403 42.4466 38.0533ZM38.5152 41.6547C38.1943 42.0751 37.8773 42.4959 37.4457 42.8469C36.9504 43.2494 36.3244 43.4273 35.6804 43.48C35.6729 42.899 35.6682 42.3174 35.6539 41.7361C36.6073 41.6843 37.5611 41.6632 38.5152 41.6547ZM7.62722 44.7931C7.24829 44.5889 6.9256 44.3 6.64768 43.9792C6.61831 43.9275 6.59109 43.8747 6.56387 43.822C6.55527 43.805 6.55778 43.8106 6.55169 43.7992C6.45965 43.5904 6.38766 43.3752 6.3325 43.156C6.32247 43.1159 6.31424 43.0746 6.306 43.0339C6.2949 42.9319 6.28988 42.8287 6.29203 42.7264C6.29239 42.7014 6.29203 42.689 6.29203 42.6734C6.30278 42.6222 6.32176 42.5734 6.33859 42.5239C6.35077 42.4991 6.36259 42.4786 6.37691 42.4539C6.41058 42.4324 6.45535 42.4044 6.49725 42.3809C6.53737 42.3699 6.57784 42.3591 6.61867 42.3493C6.64732 42.3428 6.66343 42.3386 6.68098 42.334C6.69495 42.3347 6.71716 42.3344 6.75476 42.3324C6.91557 42.3239 7.0771 42.3331 7.23719 42.3467C7.24435 42.3474 7.2397 42.3467 7.24579 42.3471C7.2594 42.3493 7.25367 42.3493 7.28411 42.3539C7.36792 42.3666 7.45101 42.3835 7.5341 42.3998C7.71711 42.4353 7.89726 42.4832 8.07634 42.533C8.51471 42.6548 8.89937 42.8326 9.33631 43.0387C9.86172 43.2866 10.3692 43.566 10.8681 43.8548C11.0232 43.9447 11.1722 44.0411 11.3205 44.1362C11.6886 44.4176 12.0758 44.6804 12.4941 44.8572C12.2785 45.1796 12.0926 45.517 11.9336 45.868C10.428 45.8198 8.86606 45.461 7.62722 44.7931ZM30.7723 56.4036C30.6788 56.431 30.5847 56.4603 30.4933 56.4841C30.4213 56.2428 30.2552 56.0168 30.0428 55.8855C28.2266 54.7601 26.4054 54.197 24.3464 53.9733C24.5248 53.5141 24.6472 53.0527 24.7414 52.5919C25.3628 50.0524 24.2042 47.1632 21.8834 45.6235C21.0511 45.0718 20.2857 45.8677 20.3691 46.6099C20.257 46.9499 20.3369 47.3403 20.7624 47.5833C20.9117 47.6686 21.0485 47.7588 21.1807 47.85C22.3948 49.4421 22.7276 50.9678 22.6935 52.8065C22.5345 53.3151 22.3164 53.8215 22.0496 54.311C21.7136 54.9265 22.1219 55.6426 22.9045 55.6654C22.9718 55.6677 23.0338 55.6758 23.1007 55.6787C25.8016 56.8306 25.9814 57.5454 23.6007 57.817C23.3095 57.8906 23.0051 57.9394 22.7 57.987C19.9977 58.2895 17.086 58.1391 14.3712 57.9193C13.4088 57.6255 12.5761 57.1022 12.0253 56.1923C12.6578 53.6199 12.6979 50.8076 13.4006 48.3534C14.5492 46.577 15.9814 44.9702 17.1146 43.8656C17.4964 43.493 17.8259 43.2006 18.1164 42.9492C18.1758 42.9244 18.2238 42.8942 18.2847 42.8704C18.4681 42.7984 18.5712 42.6828 18.6196 42.5519C18.6357 42.532 18.6421 42.503 18.6572 42.4822C19.7194 41.559 19.8974 41.2056 19.477 38.717C19.2456 37.3469 19.1546 35.5122 18.3169 34.1985C18.2643 33.9012 18.2124 33.6039 18.145 33.3085C18.3803 33.2977 18.6156 33.2808 18.8495 33.2512C20.6159 33.0278 22.3404 31.8909 22.6749 30.2333C23.1441 27.9062 21.0604 25.9373 19.0382 24.8616C18.7435 24.7053 18.472 24.7998 18.3234 24.988C17.7002 25.1508 17.2901 25.8728 17.885 26.3792C18.9362 27.2751 20.3219 28.762 18.7245 29.8298C17.0075 30.9778 14.9514 29.6667 13.9847 28.3325C13.392 27.5138 12.9207 26.4645 12.7022 25.3895C12.8089 25.2821 12.8773 25.1326 12.8727 24.9313C12.8089 22.2108 13.916 20.8414 15.4635 20.4617C17.5197 20.0996 19.8018 21.6318 21.195 22.8032C21.4217 22.9937 21.6954 23.0653 21.9651 23.0556C22.0449 23.1379 22.1298 23.2138 22.2072 23.2991C22.5771 23.7088 23.2121 23.5763 23.6014 23.2991C24.3371 22.7761 25.3102 22.1984 26.3528 21.7663C27.7198 21.5719 29.0751 21.7516 29.9604 22.8598C31.9478 25.3469 28.1181 27.1917 26.607 28.581C26.0823 29.0632 26.3864 29.7615 26.9684 29.9588C27.1006 30.0659 27.2693 30.1418 27.4662 30.1545C27.3806 30.1662 27.3789 30.2874 27.473 30.2874C27.5672 30.2874 27.5654 30.1659 27.4798 30.1542C27.5465 30.1581 27.6113 30.1649 27.6826 30.1535C28.8125 29.9754 29.9891 29.4485 31.0345 28.722C30.9772 29.1903 30.864 29.6299 30.6867 30.0327C30.4568 30.3486 30.1968 30.6541 29.8504 30.942C28.9776 31.6678 27.8391 32.1163 26.674 32.2856C26.4824 32.1622 26.2421 32.1117 26.0147 32.1602C25.9685 32.1703 25.9223 32.1804 25.8757 32.1902C25.4395 32.2843 25.1103 32.6891 25.12 33.0929C25.1214 33.1548 25.1243 33.2154 25.1257 33.2769C25.0086 33.4782 24.9481 33.7117 25.0097 33.9637C25.0752 34.2321 25.1229 34.502 25.1705 34.772C25.1966 35.448 25.2346 36.1228 25.3034 36.8034C25.1637 36.7044 25.0401 36.5953 24.8969 36.4986C24.4556 36.2003 23.9213 36.6214 23.9026 37.0343C23.2368 37.1936 22.8719 38.107 23.3661 38.5844C22.6957 38.5092 21.9604 39.1315 22.4314 39.7923C23.9137 41.8736 25.3044 44.1912 26.1042 46.6262C26.3968 48.1265 26.5465 49.6821 26.7832 51.2736C26.7632 51.6676 26.7299 52.0623 26.6647 52.458C26.5741 53.0077 26.9036 53.5157 27.5579 53.5428C27.7166 53.6043 27.8906 53.6258 28.055 53.5962C29.9407 53.886 31.0567 55.5224 30.7723 56.4036ZM33.726 54.3432C33.2561 52.8921 31.5191 51.6556 28.872 51.9601C28.7828 51.9431 28.6947 51.9246 28.6048 51.9109C28.8247 49.1064 28.0497 46.3145 26.8062 43.7011C26.5859 43.1618 26.3212 42.6408 26.0025 42.1412C25.3879 41.036 24.7063 39.9711 24.0001 38.9602C23.9875 38.942 23.9689 38.9348 23.9553 38.9179C28.4358 40.92 31.2086 44.9871 30.339 49.6124C30.2419 50.1302 30.5234 50.564 30.9894 50.7099C31.147 50.887 31.3765 51.0118 31.6251 50.9942C33.1712 50.8854 34.3284 51.4794 34.7621 52.2655C34.9347 52.9771 34.6353 53.7769 33.726 54.3432ZM51.3846 51.9024C50.3474 51.8656 49.3077 51.8461 48.2683 51.8327C48.5086 51.4569 48.8038 51.1111 49.1995 50.8646C49.7883 50.4976 50.5412 50.4474 51.106 50.0635C51.7252 49.6421 51.4813 48.8901 50.7299 48.8015C49.7962 48.6912 48.797 49.3099 48.1072 49.8212C47.4231 50.3279 47.0291 51.0528 46.8558 51.8249C43.5737 51.8168 40.2891 51.9155 37.0242 52.1395C36.9712 52.1431 36.9339 52.1669 36.8842 52.175C36.7323 51.8067 36.5031 51.4521 36.2123 51.1254C35.9841 50.7187 35.6729 50.3439 35.2843 50.0185C35.9304 49.4066 35.7334 48.3574 35.7245 47.5898C35.7112 46.4738 35.7033 45.3577 35.6919 44.2407C37.4855 44.174 39.2064 43.2527 39.8335 41.6537C41.6175 41.6668 43.4025 41.727 45.1872 41.8039C45.5367 42.0321 45.9926 42.0911 46.3709 41.8547C47.172 41.8902 47.9736 41.9247 48.7748 41.9569C48.6834 42.3852 48.7554 42.8245 49.1247 43.2582C49.687 43.9193 50.8911 44.2889 51.9064 44.2352C51.6604 46.7877 51.4612 49.3408 51.3846 51.9024ZM52.0672 42.6414C51.5071 42.5701 50.9197 42.5903 50.3968 42.3575C50.2246 42.2806 50.1364 42.1523 50.0945 42.0032C50.7714 42.026 51.4483 42.0507 52.1253 42.0634C52.1052 42.2562 52.0873 42.449 52.0672 42.6414Z" fill="#2B2B2B"/>
<path d="M59.386 21.9705C52.3226 14.9546 43.2904 1.94469 31.9052 0.72772C26.3248 0.130794 21.55 4.38744 17.5444 7.36165C11.4354 11.8967 4.06326 16.0195 0.173035 22.4405C-0.548996 23.6324 1.15437 24.8422 2.2367 23.8883C6.87833 19.7981 12.2126 16.6047 17.1888 12.8932C21.0077 10.045 26.8767 3.71431 32.3346 4.90002C37.579 6.03948 42.1418 10.8618 45.7369 14.2268C49.3854 17.6419 52.6718 21.3538 56.1956 24.8715C58.1576 26.8303 61.3462 23.9183 59.386 21.9705Z" fill="#2B2B2B"/>
</svg>
