<svg width="60" height="61" viewBox="0 0 60 61" fill="none" xmlns="http://www.w3.org/2000/svg">
<path d="M3.05709 36.5351C1.10802 38.4878 0.0135322 41.1326 0.0135322 43.89C0.0135322 46.6474 1.10802 49.2923 3.05709 51.2449C4.1886 52.3812 5.57226 53.2351 7.09588 53.7374C7.5952 55.2593 8.4463 56.6423 9.58025 57.7745C11.2659 59.4597 13.4793 60.5161 15.8509 60.7674C18.2224 61.0186 20.6085 60.4494 22.6105 59.1549C24.6125 57.8604 26.1092 55.919 26.8507 53.6548C27.5922 51.3907 27.5335 48.941 26.6844 46.7149L30.0033 43.3997L33.3194 46.7121C32.61 48.5883 32.4562 50.6289 32.8764 52.59C33.2966 54.5512 34.2731 56.35 35.6892 57.7718C37.6423 59.722 40.2908 60.8176 43.0523 60.8176C45.8139 60.8176 48.4624 59.722 50.4154 57.7718C51.5531 56.6416 52.408 55.2595 52.9107 53.7374C54.4346 53.2393 55.8192 52.3891 56.9522 51.2558C58.6369 49.5711 59.6924 47.3602 59.9425 44.9921C60.1926 42.624 59.6223 40.2419 58.3266 38.243C57.031 36.2442 55.0884 34.7495 52.8229 34.0084C50.5573 33.2673 48.1059 33.3246 45.8776 34.1707L42.5615 30.8555L45.8749 27.5431C48.1032 28.3891 50.5546 28.4464 52.8201 27.7053C55.0856 26.9642 57.0283 25.4695 58.3239 23.4707C59.6196 21.4719 60.1899 19.0897 59.9398 16.7216C59.6897 14.3535 58.6342 12.1426 56.9495 10.4579C55.8176 9.32399 54.4338 8.47283 52.9107 7.97355C52.4119 6.45082 51.5597 5.06751 50.4236 3.93652C48.4397 2.04547 45.8028 0.990397 43.0605 0.990397C40.3183 0.990397 37.6814 2.04547 35.6974 3.93652C34.2813 5.35825 33.3048 7.15712 32.8846 9.11827C32.4643 11.0794 32.6181 13.1199 33.3276 14.9961L30.0033 18.3249L26.6872 14.9989C27.5362 12.7727 27.5949 10.323 26.8534 8.05888C26.112 5.79474 24.6152 3.85328 22.6132 2.55878C20.6112 1.26427 18.2252 0.69511 15.8536 0.94636C13.4821 1.19761 11.2686 2.25406 9.58298 3.93924C8.4484 5.07035 7.59638 6.45241 7.09588 7.97355C5.57234 8.47231 4.18779 9.32246 3.05436 10.4552C1.3673 12.1389 0.30968 14.3499 0.0581499 16.7188C-0.19338 19.0877 0.376415 21.4711 1.67236 23.4709C2.9683 25.4707 4.91193 26.9658 7.17859 27.7064C9.44524 28.4471 11.8977 28.3885 14.1263 27.5403L17.4588 30.8555L14.129 34.1679C12.2506 33.4599 10.208 33.3067 8.24482 33.7264C6.28163 34.1461 4.48077 35.1211 3.05709 36.5351ZM46.8457 39.7577C47.4657 39.3396 48.1724 39.067 48.9128 38.9604C49.6532 38.8537 50.4081 38.9157 51.1212 39.1417C51.8342 39.3676 52.4868 39.7518 53.0302 40.2653C53.5736 40.7789 53.9937 41.4086 54.259 42.1072C54.5243 42.8059 54.628 43.5554 54.5624 44.2997C54.4967 45.0441 54.2633 45.7639 53.8797 46.4055C53.4961 47.047 52.9723 47.5935 52.3473 48.0042C51.7224 48.4149 51.0125 48.6791 50.2709 48.777C49.6824 48.8587 49.1367 49.1301 48.7168 49.55C48.2969 49.9699 48.0258 50.5153 47.9447 51.1033C47.8058 52.1678 47.321 53.1573 46.5648 53.92C45.6189 54.8209 44.3621 55.3235 43.0551 55.3235C41.7481 55.3235 40.4912 54.8209 39.5453 53.92C38.7387 53.1108 38.2357 52.0488 38.121 50.9127C38.0062 49.7766 38.2868 48.6357 38.9154 47.6819C39.2631 47.1578 39.4186 46.5296 39.3554 45.904C39.2923 45.2784 39.0145 44.6939 38.569 44.2496L33.8594 39.5479L38.7054 34.7073L43.4123 39.4117C43.8569 39.856 44.4416 40.1331 45.0673 40.1961C45.6929 40.2592 46.3212 40.1043 46.8457 39.7577ZM16.5943 22.2993C16.1492 21.8548 15.5638 21.5777 14.9375 21.5152C14.3113 21.4526 13.6826 21.6084 13.1582 21.9561C12.5379 22.3733 11.8313 22.6451 11.0911 22.751C10.3509 22.857 9.59627 22.7945 8.88368 22.5681C8.17109 22.3417 7.51896 21.9573 6.97606 21.4436C6.43316 20.93 6.01354 20.3004 5.74857 19.6019C5.48361 18.9034 5.38016 18.1541 5.44596 17.4101C5.51176 16.6661 5.74511 15.9465 6.12856 15.3053C6.512 14.664 7.03563 14.1176 7.66027 13.707C8.28491 13.2964 8.9944 13.0321 9.73569 12.934C10.3238 12.8525 10.8692 12.5814 11.289 12.162C11.7089 11.7427 11.9802 11.1979 12.0619 10.6104C12.1648 9.87485 12.4322 9.17187 12.8443 8.55365C13.2564 7.93542 13.8026 7.41782 14.4423 7.03924C15.082 6.66067 15.7988 6.43083 16.5396 6.3668C17.2804 6.30276 18.0261 6.40617 18.7214 6.66935C19.4167 6.93252 20.0437 7.34871 20.556 7.88703C21.0683 8.42535 21.4526 9.07199 21.6806 9.77896C21.9085 10.4859 21.9741 11.2351 21.8725 11.9709C21.771 12.7066 21.5049 13.4101 21.0939 14.0291C20.7459 14.5529 20.59 15.1809 20.6526 15.8065C20.7152 16.4321 20.9926 17.0168 21.4376 17.4614L26.1472 22.1631L21.3012 27.0037L16.5943 22.2993ZM16.5943 39.4117L38.569 17.4614C39.0145 17.0171 39.2923 16.4326 39.3554 15.807C39.4186 15.1814 39.2631 14.5532 38.9154 14.0291C38.2868 13.0753 38.0062 11.9344 38.121 10.7983C38.2357 9.66216 38.7387 8.60018 39.5453 7.79104C40.4912 6.89011 41.7481 6.38751 43.0551 6.38751C44.3621 6.38751 45.6189 6.89011 46.5648 7.79104C47.321 8.55373 47.8058 9.54324 47.9447 10.6077C48.0258 11.1956 48.2969 11.7411 48.7168 12.161C49.1367 12.5809 49.6824 12.8523 50.2709 12.934C51.0076 13.0366 51.7118 13.3037 52.331 13.7154C52.9502 14.127 53.4687 14.6728 53.8478 15.312C54.227 15.9513 54.4571 16.6676 54.5211 17.4079C54.5851 18.1482 54.4813 18.8933 54.2175 19.5881C53.9536 20.2828 53.5365 20.9092 52.9971 21.4208C52.4577 21.9324 51.8098 22.3161 51.1016 22.5433C50.3934 22.7706 49.6431 22.8355 48.9063 22.7334C48.1695 22.6313 47.4652 22.3646 46.8457 21.9533C46.3212 21.6067 45.6929 21.4518 45.0673 21.5149C44.4416 21.5779 43.8569 21.855 43.4123 22.2993L21.4376 44.2496C20.9926 44.6942 20.7152 45.2789 20.6526 45.9045C20.59 46.5301 20.7459 47.1581 21.0939 47.6819C21.5116 48.3014 21.7837 49.0073 21.8898 49.7467C21.9959 50.4861 21.9333 51.2398 21.7066 51.9516C21.48 52.6634 21.0952 53.3148 20.5809 53.8571C20.0667 54.3994 19.4364 54.8186 18.7372 55.0833C18.0379 55.3479 17.2878 55.4513 16.5429 55.3855C15.7981 55.3198 15.0777 55.0867 14.4357 54.7037C13.7938 54.3207 13.2468 53.7976 12.8357 53.1737C12.4246 52.5497 12.1601 51.841 12.0619 51.1006C11.9802 50.5131 11.7089 49.9683 11.289 49.5489C10.8692 49.1296 10.3238 48.8585 9.73569 48.777C9.00097 48.6726 8.29916 48.4044 7.68219 47.9925C7.06521 47.5805 6.54888 47.0353 6.17139 46.397C5.7939 45.7588 5.56491 45.044 5.50138 44.3054C5.43785 43.5668 5.54139 42.8234 5.80436 42.1302C6.06732 41.437 6.48297 40.8118 7.02054 40.3007C7.55811 39.7897 8.20385 39.4059 8.90997 39.1778C9.6161 38.9497 10.3645 38.8832 11.0999 38.9831C11.8352 39.083 12.5387 39.3468 13.1582 39.7549C13.6826 40.1026 14.3113 40.2584 14.9375 40.1958C15.5638 40.1333 16.1492 39.8562 16.5943 39.4117Z" fill="#2B2B2B"/>
</svg>
