<svg width="60" height="61" viewBox="0 0 60 61" fill="none" xmlns="http://www.w3.org/2000/svg">
<g clip-path="url(#clip0_40_246)">
<path d="M41.4898 49.9933H35.3005L20.8163 28.7483L6.84564 26.0079L1.93844 50.2323C1.61526 51.7821 2.6111 53.2974 4.16249 53.6215C4.35853 53.6615 4.55582 53.6822 4.74935 53.6822C6.08028 53.6822 7.27341 52.7537 7.55525 51.4004L10.323 38.1239L15.2615 47.9449L12.681 47.9417C12.681 47.9417 12.6798 47.9417 12.6785 47.9417C11.0958 47.9417 9.81125 49.2225 9.80937 50.8041C9.80875 52.3858 11.0927 53.7022 12.6748 53.7053L41.4898 53.7272C42.5232 53.7272 43.3587 52.892 43.3587 51.859C43.3593 50.8279 42.5238 49.9933 41.4898 49.9933Z" fill="#2B2B2B"/>
<path d="M6.61579 20.1499C6.94272 20.2606 6.93145 23.586 6.93145 23.586L20.0021 26.0236L22.1516 13.8482C22.3614 13.0668 22.6846 12.3047 23.0648 11.5877C24.8128 8.28985 22.4923 7.59098 21.9468 7.53155C20.5896 7.38264 19.4553 8.03082 18.6079 9.11197C18.1338 9.71573 17.6747 10.3289 17.2143 10.9458C17.0809 11.126 16.94 11.1785 16.7095 11.1253C16.3268 11.0359 15.9279 10.9858 15.5352 10.937C13.2829 10.6542 11.6483 11.6146 9.38536 11.6434C8.62 11.6522 2.55975 8.85857 0.941346 10.9264C-0.826123 13.1806 0.144043 15.789 1.80379 17.5021C2.77834 18.51 3.93828 19.2233 5.26043 19.6813C5.71076 19.8352 6.16358 19.9947 6.61579 20.1499Z" fill="#2B2B2B"/>
<path d="M55.4304 24.8486H49.1108C48.6511 22.3209 46.4358 20.397 43.7752 20.397H38.1766C35.516 20.397 33.3013 22.3209 32.841 24.8486H26.5214C24.5993 24.8486 22.957 26.0361 22.2812 27.7153L36.2888 48.2608H41.6501C43.5441 48.2608 45.0849 49.7993 45.0849 51.6894C45.0849 52.4527 44.8318 53.1553 44.4091 53.726H55.4298C57.9532 53.726 60 51.6807 60 49.1605V29.4146C60 26.8932 57.9538 24.8486 55.4304 24.8486ZM38.1766 22.68H43.7752C45.1688 22.68 46.3513 23.5916 46.7628 24.8486H35.1897C35.5993 23.5922 36.783 22.68 38.1766 22.68ZM49.2029 41.9704H43.7176V47.4481H38.2336V41.9698H32.7495V36.4896H38.2342V31.0113H43.7182V36.4909H49.2035L49.2029 41.9704Z" fill="#2B2B2B"/>
</g>
<defs>
<clipPath id="clip0_40_246">
<rect width="60" height="59.9365" fill="white" transform="translate(0 0.649902)"/>
</clipPath>
</defs>
</svg>
