<svg width="199" height="282" viewBox="0 0 199 282" fill="none" xmlns="http://www.w3.org/2000/svg">
<g opacity="0.6" clip-path="url(#clip0_69_131)">
<path fill-rule="evenodd" clip-rule="evenodd" d="M-34.0344 174.798C-36.1094 177.692 -38.7979 180.096 -41.8777 181.812C-36.8458 176.344 -31.1665 169.802 -24.8398 162.187C-24.3293 157.193 -24.9521 153.865 -26.7083 152.204C-25.5987 139.704 1.08512 126.38 11.9596 135.108C13.9986 135.036 15.9966 135.396 17.8259 136.165C19.6553 136.934 21.2755 138.095 22.5831 139.574C23.8906 141.054 24.8566 142.818 25.4192 144.755C25.9819 146.691 26.1288 148.758 25.8505 150.822C35.6256 152.928 39.3851 155.559 37.1289 158.717C34.4941 170.223 26.0562 177.871 16.3711 177.218C13.0181 177.769 8.08391 182.02 1.56846 189.971L1.5255 189.957L1.68814 190.012L1.82214 190.059L1.85679 190.07L1.91648 190.089L1.96079 190.105L2.00739 190.12L2.0184 190.129L2.04828 190.138L2.09482 190.152L2.14141 190.166L2.18683 190.182L2.23217 190.195L2.27876 190.209L2.3253 190.223L2.35749 190.232L2.36731 190.241C3.11015 190.453 3.8758 190.595 4.65485 190.665C7.63015 190.403 8.70739 190.944 7.88659 192.288C6.16383 194.54 4.90825 196.646 4.11993 198.606C2.33353 200.082 1.45126 199.904 1.47307 198.072C-0.177395 196.16 -1.78866 195.046 -3.36068 194.731L-3.39986 194.723L-3.44378 194.716L-3.48644 194.709L-3.52918 194.701L-3.61219 194.688L-3.64406 194.686L-3.65142 194.679L-3.65872 194.673C-3.98977 194.628 -4.32746 194.619 -4.666 194.647C-10.7333 196.311 -12.5973 195.26 -10.258 191.492C-19.2167 187.488 -27.269 181.833 -34.0346 174.793L-34.0344 174.798ZM-2.39368 195C-2.62541 194.91 -2.86356 194.836 -3.10673 194.777C-3.80162 196.047 -4.50183 197.378 -5.20738 198.771C-4.24095 197.454 -3.30424 196.196 -2.39733 194.997L-2.39368 195ZM0.0851897 189.312C5.2594 181.067 10.1715 176.369 14.8216 175.218C19.4628 175.463 23.5052 174.358 26.9487 171.904C26.8601 171.346 26.7761 170.783 26.6964 170.215L26.6887 170.177C26.6478 169.887 26.6116 169.595 26.5821 169.296C26.5402 168.886 26.5122 168.472 26.4936 168.056C24.7227 169.561 22.6559 170.645 20.4637 171.218C18.2715 171.791 16.0167 171.837 13.8853 171.352C11.7538 170.867 9.80683 169.865 8.20479 168.428C6.60275 166.992 5.39158 165.162 4.6712 163.091C9.9497 170.582 23.1248 173.98 28.2475 162.489C25.7542 158.937 25.238 155.797 26.6988 153.07C21.164 150.794 18.2004 149.245 17.8083 148.422C19.9169 148.985 21.9951 149.624 24.0428 150.341C24.1447 149.648 24.0171 148.959 23.6801 148.383C22.8241 147.821 21.7836 147.581 20.7249 147.702C21.1023 147.235 21.6174 146.902 22.1833 146.759C22.7492 146.616 23.3313 146.672 23.8314 146.917C22.7664 141.898 18.7538 138.184 13.9375 137.359C9.82454 136.651 11.2028 136.291 8.23306 135.005C4.0741 133.208 -0.804948 133.668 -6.40405 136.384C-17.7045 141.697 -23.6032 146.35 -24.1002 150.342C-21.9658 155.86 -21.5968 161.147 -22.9929 166.205C-23.5989 171.748 -22.3465 173.429 -19.236 171.246C-7.17586 164.575 -16.8863 153.162 -3.58286 142.925C-6.95734 147.85 -9.06199 152.954 -9.89686 158.235C-11.0205 165.375 -12.1999 170.925 -20.1346 174.144C-24.2396 175.423 -25.8428 172.792 -24.944 166.251C-26.4211 167.226 -27.6934 168.503 -28.671 169.99C-23.9321 176.223 -17.1041 181.482 -8.18682 185.768C-6.51051 183.644 -5.30583 183.353 -4.57276 184.894C-3.5604 186.608 -2.14622 188.026 -0.443414 189.034L-0.406611 189.065L-0.391951 189.077L-0.371126 189.095L-0.28755 189.144L-0.247644 189.167L-0.0941148 189.252L-0.0843602 189.26L0.205289 189.413L0.053237 189.333L0.0851897 189.312ZM28.3334 170.815C29.537 169.766 30.6286 168.591 31.5869 167.311C32.8374 165.15 33.7849 162.84 34.3996 160.455C33.3 161.66 31.8822 162.517 30.344 162.904C29.4809 163.739 28.8201 164.763 28.421 165.884C28.0219 167.004 27.897 168.186 28.0576 169.322L28.1847 169.989C28.2283 170.263 28.2791 170.538 28.3263 170.813L28.3334 170.815Z" fill="#F8D9CC"/>
<path fill-rule="evenodd" clip-rule="evenodd" d="M-46.5908 177.867C-45.3183 133.234 -31.6914 102.966 -5.71015 87.0634C31.7927 64.1081 73.6385 100.576 58.3282 138.27C68.7679 136.609 79.149 138.841 87.512 144.545C95.875 150.248 101.641 159.03 103.723 169.231C107.87 191.504 96.0821 214.449 76.15 225.334C57.008 235.786 34.2454 239.935 14.078 234.936C49.6801 236.38 74.7602 226.926 89.3182 206.575C92.7453 202.027 95.2637 196.885 96.7165 191.467C98.1692 186.05 98.5252 180.474 97.7622 175.088C94.0674 148.943 70.8626 141.311 46.9647 147.24C63.6299 110.375 44.3818 79.564 7.23717 88.3726C-26.4577 96.3659 -44.3624 144.685 -46.5908 177.867Z" fill="#F8D9CC"/>
<path fill-rule="evenodd" clip-rule="evenodd" d="M2.68643 65.2793C6.58422 74.3406 19.8129 76.6155 32.2377 70.3625C44.6625 64.1095 51.572 51.6936 47.6755 42.6357C43.7791 33.5778 30.5492 31.2996 18.1267 37.5523C5.70426 43.805 -1.20779 56.2187 2.68643 65.2793Z" fill="#F8D9CC"/>
<path fill-rule="evenodd" clip-rule="evenodd" d="M56.8972 88.5051C61.8195 99.9573 78.5406 102.831 94.2413 94.9275C109.942 87.0242 118.677 71.3353 113.752 59.8857C108.828 48.4362 92.1103 45.5611 76.4073 53.4647C60.7042 61.3683 51.9714 77.0545 56.8972 88.5051Z" fill="#F8D9CC"/>
<path fill-rule="evenodd" clip-rule="evenodd" d="M103.493 144.717C113.264 150.65 128.396 144.174 137.288 130.253C146.18 116.332 145.469 100.238 135.698 94.3031C125.928 88.3682 110.797 94.8468 101.902 108.768C93.0078 122.69 93.7214 138.786 103.493 144.717Z" fill="#F8D9CC"/>
<path fill-rule="evenodd" clip-rule="evenodd" d="M116.377 204.681C124.661 209.71 137.493 204.221 145.034 192.414C152.575 180.606 151.973 166.961 143.689 161.934C135.405 156.907 122.572 162.392 115.03 174.199C107.488 186.005 108.088 199.65 116.377 204.681Z" fill="#F8D9CC"/>
<path fill-rule="evenodd" clip-rule="evenodd" d="M25.2637 228.43C23.4834 230.246 22.1238 232.433 21.2976 234.809C24.5208 230.596 28.4209 225.795 32.9976 220.404C36.4495 219.427 38.8687 219.453 40.2551 220.481C48.9179 218.149 54.987 197.746 47.4939 191.188C47.292 189.746 46.7909 188.386 46.0227 187.195C45.2544 186.005 44.2359 185.01 43.0324 184.275C41.8289 183.539 40.4669 183.079 39.0336 182.924C37.6002 182.769 36.1272 182.922 34.7087 183.374C32.0125 176.766 29.6946 174.451 27.7548 176.427C19.9866 179.709 15.6453 186.585 17.3094 193.312C17.3402 195.738 14.9603 199.732 10.1698 205.296L10.1853 205.325L10.1226 205.218L10.0713 205.13L10.0597 205.109L10.0367 205.069L10.021 205.038L10.0067 205.008L9.99685 204.999L9.98213 204.987L9.9653 204.955L9.94982 204.926L9.93202 204.898L9.91543 204.87L9.90337 204.84L9.88885 204.807L9.87048 204.792C9.6257 204.298 9.4296 203.778 9.28473 203.239C9.10284 201.116 8.58831 200.425 7.74119 201.167C6.3681 202.658 5.04159 203.801 3.76164 204.596C2.94309 206.036 3.17754 206.635 4.46493 206.392C6.01338 207.315 6.99729 208.309 7.41671 209.375L7.42506 209.402L7.43713 209.433L7.44658 209.459L7.45858 209.489L7.47789 209.548L7.48472 209.568L7.49083 209.573C7.56245 209.8 7.60994 210.036 7.63258 210.277C7.21806 214.749 8.18925 215.928 10.546 213.813C14.4747 219.613 19.4543 224.571 25.2494 228.452L25.2637 228.43ZM7.11976 208.699C7.21177 208.851 7.29398 209.01 7.36594 209.174C6.55425 209.82 5.70417 210.474 4.80995 211.141C5.61947 210.302 6.38939 209.487 7.11976 208.699ZM10.8203 206.255C15.9827 201.599 18.6795 197.565 18.9107 194.151C18.1607 190.921 18.4374 187.943 19.7407 185.217C20.144 185.212 20.5505 185.2 20.9567 185.181L20.9849 185.18C21.1965 185.177 21.4042 185.164 21.6165 185.149C21.9118 185.124 22.2057 185.094 22.5015 185.055C21.6623 186.487 21.1564 188.074 21.0254 189.685C20.8945 191.296 21.1422 192.887 21.7483 194.324C22.3543 195.761 23.3013 197.005 24.5111 197.952C25.7209 198.9 27.1589 199.524 28.7065 199.773C22.7769 196.99 18.7511 188.156 26.2054 183.129C29.0155 184.438 31.2895 184.412 33.0271 183.049C35.3153 186.657 36.7737 188.548 37.4024 188.721C36.7431 187.313 36.0349 185.931 35.2777 184.576C35.7528 184.419 36.2539 184.424 36.7009 184.59C37.203 185.122 37.5008 185.823 37.5465 186.582C37.8292 186.26 38.0004 185.856 38.0315 185.441C38.0625 185.025 37.9512 184.622 37.7166 184.301C39.4989 184.376 41.1864 184.955 42.5909 185.973C43.9953 186.991 45.0612 188.408 45.6697 190.065C46.6809 192.867 46.7655 191.854 48.0387 193.782C49.8183 196.479 50.0984 199.965 48.8791 204.241C46.5423 212.838 43.9991 217.559 41.2493 218.405C37.1032 217.587 33.3362 217.984 29.9482 219.594C26.1215 220.706 24.7827 220.035 25.9319 217.583C29.1339 208.279 38.3713 213.687 43.9264 203.071C40.8758 206.052 37.5442 208.162 33.9315 209.402C29.0484 211.079 25.2897 212.598 24.0047 218.572C23.6139 221.615 25.6651 222.415 30.1584 220.97C29.6549 222.13 28.9132 223.183 27.9862 224.054C23.0092 221.501 18.4606 217.354 14.3406 211.615C15.6289 210.173 15.6842 209.291 14.5063 208.968C13.1755 208.468 12.0025 207.651 11.0806 206.581L11.0548 206.56L11.0303 206.539L10.9854 206.486L10.9596 206.464L10.8822 206.37L10.8736 206.363C10.8248 206.301 10.7722 206.235 10.7293 206.174L10.8034 206.272L10.8203 206.255ZM10.5245 205.851C10.4525 205.747 10.3829 205.644 10.3178 205.537C10.3853 205.646 10.4525 205.747 10.5245 205.851ZM20.3338 184.108C20.9245 183.134 21.6191 182.223 22.4036 181.394C23.768 180.246 25.2758 179.294 26.8789 178.567C26.1672 179.489 25.7402 180.592 25.6571 181.72C25.1763 182.43 24.5377 183.021 23.7989 183.441C23.06 183.86 22.2439 184.094 21.424 184.123L20.9425 184.117L20.3338 184.108Z" fill="#F8D9CC"/>
<path fill-rule="evenodd" clip-rule="evenodd" d="M13.5066 148.963C13.4939 148.305 13.2606 147.688 12.8445 147.212C12.4284 146.737 11.8541 146.431 11.2152 146.345C10.5762 146.259 9.91033 146.397 9.32586 146.738C8.74139 147.079 8.27283 147.601 7.99652 148.221C8.92819 147.776 9.94732 147.609 10.9271 147.741C11.9068 147.873 12.8039 148.298 13.5066 148.963Z" fill="#F8D9CC"/>
<path fill-rule="evenodd" clip-rule="evenodd" d="M38.595 194.172C39.0468 194.095 39.4991 194.175 39.8766 194.399C40.2541 194.624 40.5341 194.978 40.6702 195.405C40.8062 195.831 40.7901 196.303 40.6244 196.743C40.4587 197.183 40.1535 197.563 39.7595 197.822C39.9496 197.136 39.9407 196.425 39.7336 195.776C39.5266 195.127 39.1307 194.57 38.595 194.172Z" fill="#F8D9CC"/>
</g>
<defs>
<clipPath id="clip0_69_131">
<rect width="199.934" height="199.906" fill="white" transform="matrix(0.766297 0.642487 -0.643089 0.765792 45.5575 0.458496)"/>
</clipPath>
</defs>
</svg>
