<svg width="198" height="282" viewBox="0 0 198 282" fill="none" xmlns="http://www.w3.org/2000/svg">
<g id="Isolation_Mode" opacity="0.6" clip-path="url(#clip0_197_187)">
<path id="Vector" fill-rule="evenodd" clip-rule="evenodd" d="M158.006 237.238C160.498 239.784 162.401 242.85 163.558 246.181C159.042 240.275 153.581 233.546 147.174 225.992C142.34 224.621 138.952 224.656 137.011 226.097C124.884 222.832 116.384 194.238 126.876 185.045C127.159 183.025 127.86 181.12 128.936 179.452C130.012 177.784 131.437 176.39 133.122 175.359C134.807 174.329 136.714 173.684 138.72 173.467C140.727 173.249 142.789 173.463 144.775 174.096C148.548 164.836 151.794 161.591 154.515 164.361C165.397 168.955 171.47 178.594 169.145 188.019C169.105 191.417 172.438 197.015 179.143 204.813L179.123 204.853L179.205 204.702L179.275 204.578L179.291 204.546L179.32 204.491L179.344 204.45L179.366 204.406L179.377 204.397L179.392 204.369L179.414 204.326L179.436 204.283L179.459 204.241L179.48 204.198L179.502 204.155L179.524 204.111L179.538 204.081L179.548 204.073C179.886 203.378 180.159 202.649 180.364 201.894C180.622 198.918 181.342 197.952 182.524 198.993C184.445 201.081 186.302 202.684 188.097 203.801C189.241 205.817 188.913 206.655 187.112 206.315C184.94 207.608 183.563 209.001 182.979 210.494L182.965 210.532L182.95 210.574L182.936 210.614L182.92 210.655L182.893 210.735L182.885 210.766L182.878 210.772L182.871 210.778C182.768 211.096 182.701 211.427 182.669 211.765C183.256 218.03 181.896 219.683 178.589 216.724C173.087 224.851 166.115 231.798 158.002 237.237L158.006 237.238ZM183.412 209.589C183.283 209.801 183.169 210.023 183.068 210.252C184.2 211.157 185.39 212.078 186.64 213.015C185.51 211.835 184.433 210.693 183.408 209.592L183.412 209.589ZM178.237 206.159C171.009 199.631 167.231 193.977 166.905 189.197C167.952 184.669 167.565 180.496 165.744 176.678C165.179 176.669 164.609 176.654 164.035 176.633L163.996 176.634C163.704 176.624 163.409 176.609 163.11 176.586C162.699 176.556 162.286 176.512 161.873 176.458C163.049 178.464 163.758 180.687 163.942 182.946C164.126 185.204 163.779 187.433 162.931 189.447C162.083 191.462 160.758 193.206 159.064 194.534C157.37 195.862 155.356 196.736 153.189 197.086C161.49 193.19 167.127 180.805 156.69 173.763C152.757 175.601 149.572 175.564 147.138 173.651C143.934 178.707 141.892 181.356 141.013 181.599C141.934 179.62 142.925 177.685 143.987 175.793C143.322 175.572 142.621 175.578 141.994 175.81C141.291 176.555 140.874 177.538 140.81 178.602C140.415 178.149 140.176 177.584 140.134 177.002C140.091 176.419 140.247 175.856 140.576 175.406C135.445 175.583 131.087 178.889 129.437 183.488C128.025 187.416 127.909 185.996 126.127 188.697C123.633 192.481 123.239 197.366 124.944 203.352C128.218 215.404 131.78 222.021 135.628 223.205C141.437 222.062 146.713 222.617 151.455 224.871C156.813 226.431 158.687 225.49 157.076 222.047C152.595 209.011 139.66 216.59 131.881 201.71C136.149 205.889 140.814 208.849 145.874 210.589C152.716 212.936 157.982 215.062 159.776 223.436C160.324 227.701 157.452 228.822 151.161 226.8C151.866 228.424 152.903 229.899 154.199 231.121C161.165 227.537 167.535 221.727 173.307 213.69C171.505 211.67 171.427 210.433 173.073 209.979C174.938 209.279 176.581 208.133 177.871 206.631L177.908 206.601L177.922 206.588L177.943 206.571L178.007 206.497L178.035 206.462L178.147 206.325L178.156 206.317L178.357 206.058L178.252 206.194L178.237 206.159ZM164.911 175.125C164.086 173.758 163.117 172.479 162.022 171.312C160.11 169.705 157.998 168.371 155.754 167.351C156.751 168.643 157.349 170.188 157.464 171.771C158.137 172.766 159.031 173.595 160.066 174.182C161.101 174.77 162.244 175.098 163.392 175.138L164.072 175.129C164.349 175.133 164.629 175.131 164.908 175.132L164.911 175.125Z" fill="#F8D9CC"/>
<path id="Vector_2" fill-rule="evenodd" clip-rule="evenodd" d="M158.852 250.137C115.083 241.128 87.617 222.448 76.4548 194.097C60.3425 153.175 103.551 118.302 138.044 139.931C138.219 129.361 142.222 119.526 149.296 112.281C156.37 105.036 166.026 100.883 176.441 100.606C199.114 100.393 219.681 115.989 226.949 137.51C233.926 158.178 234.063 181.316 225.633 200.308C233.239 165.498 228.276 139.156 210.746 121.282C206.859 117.117 202.228 113.743 197.141 111.371C192.054 108.999 186.62 107.679 181.179 107.494C154.769 106.589 143.218 128.115 144.912 152.681C111.471 129.862 77.7618 143.463 79.9934 181.574C82.0205 216.146 126.534 242.176 158.852 250.137Z" fill="#F8D9CC"/>
<path id="Vector_3" fill-rule="evenodd" clip-rule="evenodd" d="M56.4426 182.042C66.0502 179.778 70.5894 167.146 66.5841 153.823C62.5787 140.501 51.5415 131.538 41.9375 133.802C32.3334 136.065 27.7907 148.698 31.7962 162.018C35.8017 175.338 46.8363 184.303 56.4426 182.042Z" fill="#F8D9CC"/>
<path id="Vector_4" fill-rule="evenodd" clip-rule="evenodd" d="M88.7472 132.692C100.889 129.834 106.625 113.867 101.562 97.0311C96.4988 80.1955 82.5528 68.8666 70.413 71.7265C58.2732 74.5865 52.5366 90.5505 57.5995 107.388C62.6624 124.226 76.6063 135.553 88.7472 132.692Z" fill="#F8D9CC"/>
<path id="Vector_5" fill-rule="evenodd" clip-rule="evenodd" d="M152.241 96.5724C159.785 87.9812 156.03 71.9536 143.854 60.7772C131.677 49.6007 115.692 47.5041 108.146 56.095C100.6 64.6859 104.357 80.7128 116.534 91.8916C128.71 103.07 144.698 105.165 152.241 96.5724Z" fill="#F8D9CC"/>
<path id="Vector_6" fill-rule="evenodd" clip-rule="evenodd" d="M213.578 94.3053C219.974 87.0213 216.792 73.4305 206.464 63.9521C196.136 54.4738 182.583 52.6948 176.189 59.9791C169.796 67.2635 172.975 80.855 183.301 90.3344C193.628 99.8138 207.18 101.594 213.578 94.3053Z" fill="#F8D9CC"/>
<path id="Vector_7" fill-rule="evenodd" clip-rule="evenodd" d="M221.164 188.162C222.644 190.23 224.563 191.949 226.762 193.176C223.17 189.27 219.114 184.594 214.596 179.15C214.233 175.581 214.678 173.203 215.932 172.016C215.138 163.08 196.083 153.557 188.318 159.797C186.861 159.745 185.434 160.002 184.128 160.552C182.821 161.102 181.663 161.932 180.729 162.989C179.796 164.046 179.106 165.308 178.704 166.692C178.302 168.077 178.197 169.554 178.396 171.03C171.416 172.537 168.731 174.417 170.342 176.671C172.228 184.891 178.251 190.362 185.17 189.892C187.566 190.283 191.09 193.321 195.741 199.006L195.772 198.995L195.656 199.039L195.56 199.074L195.538 199.082L195.495 199.097L195.461 199.107L195.429 199.116L195.419 199.124L195.405 199.137L195.37 199.148L195.339 199.158L195.308 199.171L195.278 199.182L195.246 199.189L195.211 199.197L195.193 199.213C194.663 199.368 194.117 199.471 193.56 199.52C191.436 199.33 190.667 199.717 191.251 200.68C192.482 202.291 193.378 203.796 193.938 205.195C195.216 206.251 195.847 206.124 195.831 204.814C197.01 203.45 198.161 202.654 199.284 202.426L199.312 202.422L199.344 202.416L199.372 202.411L199.404 202.404L199.465 202.396L199.485 202.392L199.492 202.387C199.728 202.356 199.969 202.35 200.21 202.37C204.546 203.555 205.877 202.804 204.201 200.115C210.6 197.254 216.351 193.212 221.183 188.179L221.164 188.162ZM198.566 202.601C198.732 202.537 198.903 202.483 199.077 202.441C199.573 203.353 200.07 204.303 200.572 205.3C199.885 204.357 199.216 203.457 198.566 202.601ZM196.799 198.532C193.108 192.639 189.599 189.282 186.275 188.461C182.961 188.638 180.074 187.848 177.614 186.091C177.679 185.693 177.738 185.29 177.79 184.887L177.794 184.859C177.827 184.65 177.85 184.443 177.873 184.232C177.899 183.936 177.921 183.642 177.934 183.344C179.199 184.419 180.675 185.193 182.241 185.602C183.806 186.011 185.416 186.043 186.938 185.696C188.46 185.349 189.85 184.633 190.994 183.606C192.138 182.579 193.002 181.271 193.517 179.791C189.745 185.147 180.339 187.576 176.679 179.361C178.457 176.821 178.825 174.577 177.784 172.629C181.738 171.003 183.855 169.895 184.134 169.306C182.632 169.711 181.147 170.168 179.68 170.678C179.608 170.183 179.7 169.691 179.941 169.279C180.552 168.877 181.296 168.706 182.052 168.793C181.782 168.458 181.415 168.219 181.01 168.117C180.606 168.014 180.19 168.053 179.832 168.229C180.216 166.487 181.08 164.925 182.327 163.719C183.574 162.513 185.155 161.709 186.895 161.398C189.832 160.889 188.848 160.63 190.969 159.711C193.937 158.427 197.421 158.757 201.423 160.701C209.491 164.496 213.702 167.821 214.058 170.677C212.533 174.618 212.269 178.396 213.268 182.013C213.7 185.974 212.806 187.176 210.588 185.618C201.974 180.848 208.909 172.691 199.41 165.375C201.819 168.897 203.32 172.545 203.915 176.319C204.719 181.419 205.563 185.384 211.229 187.688C214.16 188.602 215.305 186.721 214.661 182.045C215.717 182.742 216.626 183.656 217.324 184.72C213.942 189.178 209.066 192.936 202.694 195.996C201.497 194.477 200.637 194.269 200.114 195.373C199.39 196.597 198.381 197.61 197.167 198.332L197.141 198.354L197.116 198.374L197.056 198.409L197.03 198.431L196.924 198.491L196.915 198.498C196.846 198.535 196.771 198.576 196.704 198.607L196.814 198.551L196.799 198.532ZM196.35 198.753C196.236 198.806 196.122 198.856 196.005 198.902C196.124 198.854 196.236 198.806 196.35 198.753ZM176.624 185.314C175.766 184.563 174.989 183.721 174.309 182.804C173.414 181.261 172.737 179.61 172.299 177.905C173.085 178.766 174.097 179.379 175.195 179.657C175.811 180.253 176.283 180.985 176.568 181.786C176.853 182.586 176.942 183.43 176.828 184.243L176.738 184.716L176.624 185.314Z" fill="#F8D9CC"/>
<path id="Vector_8" fill-rule="evenodd" clip-rule="evenodd" d="M140.8 185.93C140.149 185.828 139.5 185.95 138.959 186.278C138.418 186.605 138.017 187.117 137.821 187.731C137.625 188.346 137.646 189.026 137.881 189.66C138.115 190.295 138.549 190.847 139.111 191.227C138.835 190.232 138.847 189.2 139.147 188.258C139.448 187.316 140.022 186.506 140.8 185.93Z" fill="#F8D9CC"/>
<path id="Vector_9" fill-rule="evenodd" clip-rule="evenodd" d="M189.714 169.079C189.716 168.621 189.874 168.19 190.161 167.857C190.447 167.524 190.845 167.31 191.289 167.25C191.733 167.19 192.196 167.288 192.6 167.528C193.005 167.767 193.327 168.134 193.513 168.567C192.871 168.26 192.168 168.146 191.493 168.237C190.817 168.328 190.199 168.621 189.714 169.079Z" fill="#F8D9CC"/>
</g>
<defs>
<clipPath id="clip0_197_187">
<rect width="200" height="200" fill="white" transform="translate(0 128.558) rotate(-40)"/>
</clipPath>
</defs>
</svg>
