<svg width="301" height="300" viewBox="0 0 301 300" fill="none" xmlns="http://www.w3.org/2000/svg">
<ellipse cx="150.497" cy="150" rx="149.949" ry="150" fill="#F8D9CC"/>
<g opacity="0.4" clip-path="url(#clip0_642_1017)">
<path d="M194.324 10C211.362 10 225.173 36.4541 225.173 58.8712C225.173 81.2883 211.362 99.4599 194.324 99.4599C177.286 99.4599 163.478 81.2883 163.478 58.8712C163.478 36.4541 177.286 10 194.324 10Z" fill="white"/>
<path d="M106.671 10C123.709 10 137.52 36.4541 137.52 58.8712C137.52 81.2883 123.709 99.4599 106.671 99.4599C89.6328 99.4599 75.822 81.2883 75.822 58.8712C75.822 36.4541 89.6328 10 106.671 10Z" fill="white"/>
<path d="M14.2823 128.216C7.03768 109.729 10.2154 83.1268 24.6585 77.2377C39.1016 71.3485 59.3503 88.4008 66.5883 106.892C73.8264 125.383 67.9813 145.144 53.5349 151.034C39.0885 156.923 21.517 146.707 14.2823 128.216Z" fill="white"/>
<path d="M286.712 128.216C279.468 146.704 261.903 156.923 247.46 151.034C233.017 145.144 227.172 125.383 234.406 106.892C241.641 88.4008 261.893 71.3485 276.336 77.2377C290.779 83.1268 293.947 109.725 286.712 128.216Z" fill="white"/>
<path d="M260.866 230.359C257.573 215.213 249.669 201.555 240.946 188.9C220.503 159.245 187.768 129.302 150.497 129.302C113.382 129.302 80.4947 159.239 60.0485 188.9C51.3253 201.555 43.4386 215.213 40.1291 230.359C36.8196 245.505 38.6308 262.437 47.8215 274.729C57.0123 287.022 74.4224 293.173 88.0357 286.514C96.1299 282.558 102.683 274.571 111.61 273.805C119.81 273.099 127.054 278.736 133.891 283.445C138.83 286.854 144.791 289.95 150.497 289.99C156.204 289.95 162.161 286.854 167.104 283.445C173.94 278.739 181.185 273.099 189.384 273.805C198.312 274.571 204.862 282.544 212.959 286.514C226.572 293.173 243.982 287.032 253.173 274.729C262.364 262.427 264.175 245.502 260.866 230.359ZM182.963 212.117C178.758 219.959 172.123 226.866 166.518 232.245C163.515 235.125 160.352 237.827 157.044 240.335L157.024 240.352C155.132 241.771 152.845 242.535 150.497 242.535C148.15 242.535 145.863 241.771 143.971 240.352L143.951 240.335C140.643 237.827 137.48 235.125 134.477 232.245C128.879 226.866 122.237 219.959 118.032 212.117C114.558 205.636 112.743 198.523 114.541 191.108C116.267 184.002 121.759 177.757 128.497 176.886C136.288 175.878 145.36 181.474 150.497 187.901C155.634 181.474 164.707 175.878 172.498 176.886C179.235 177.757 184.728 184.002 186.454 191.108C188.252 198.517 186.437 205.636 182.963 212.117Z" fill="white"/>
</g>
<defs>
<clipPath id="clip0_642_1017">
<rect width="279.905" height="280" fill="white" transform="translate(10.5447 10)"/>
</clipPath>
</defs>
</svg>
