<svg width="464" height="326" viewBox="0 0 464 326" fill="none" xmlns="http://www.w3.org/2000/svg">
<g filter="url(#filter0_d_133_424)">
<mask id="path-1-inside-1_133_424" fill="white">
<path fill-rule="evenodd" clip-rule="evenodd" d="M40 20C28.9543 20 20 28.9543 20 40V259.42C20 270.466 28.9543 279.42 40 279.42H94.6541L110 306L125.346 279.42H424C435.046 279.42 444 270.466 444 259.42V40C444 28.9543 435.046 20 424 20H40Z"/>
</mask>
<path fill-rule="evenodd" clip-rule="evenodd" d="M40 20C28.9543 20 20 28.9543 20 40V259.42C20 270.466 28.9543 279.42 40 279.42H94.6541L110 306L125.346 279.42H424C435.046 279.42 444 270.466 444 259.42V40C444 28.9543 435.046 20 424 20H40Z" fill="white"/>
<path d="M94.6541 279.42L95.5201 278.92L95.2314 278.42H94.6541V279.42ZM110 306L109.134 306.5L110 308L110.866 306.5L110 306ZM125.346 279.42V278.42H124.769L124.48 278.92L125.346 279.42ZM21 40C21 29.5066 29.5066 21 40 21V19C28.402 19 19 28.402 19 40H21ZM21 259.42V40H19V259.42H21ZM40 278.42C29.5066 278.42 21 269.913 21 259.42H19C19 271.018 28.402 280.42 40 280.42V278.42ZM94.6541 278.42H40V280.42H94.6541V278.42ZM110.866 305.5L95.5201 278.92L93.788 279.92L109.134 306.5L110.866 305.5ZM124.48 278.92L109.134 305.5L110.866 306.5L126.212 279.92L124.48 278.92ZM424 278.42H125.346V280.42H424V278.42ZM443 259.42C443 269.913 434.493 278.42 424 278.42V280.42C435.598 280.42 445 271.018 445 259.42H443ZM443 40V259.42H445V40H443ZM424 21C434.493 21 443 29.5066 443 40H445C445 28.402 435.598 19 424 19V21ZM40 21H424V19H40V21Z" fill="#D9D9D9" mask="url(#path-1-inside-1_133_424)"/>
</g>
<defs>
<filter id="filter0_d_133_424" x="0" y="0" width="464" height="326" filterUnits="userSpaceOnUse" color-interpolation-filters="sRGB">
<feFlood flood-opacity="0" result="BackgroundImageFix"/>
<feColorMatrix in="SourceAlpha" type="matrix" values="0 0 0 0 0 0 0 0 0 0 0 0 0 0 0 0 0 0 127 0" result="hardAlpha"/>
<feOffset/>
<feGaussianBlur stdDeviation="10"/>
<feComposite in2="hardAlpha" operator="out"/>
<feColorMatrix type="matrix" values="0 0 0 0 0 0 0 0 0 0 0 0 0 0 0 0 0 0 0.1 0"/>
<feBlend mode="normal" in2="BackgroundImageFix" result="effect1_dropShadow_133_424"/>
<feBlend mode="normal" in="SourceGraphic" in2="effect1_dropShadow_133_424" result="shape"/>
</filter>
</defs>
</svg>
