<svg width="32" height="24" viewBox="0 0 32 24" fill="none" xmlns="http://www.w3.org/2000/svg">
<path d="M17.0977 22.2408L19.204 24C27.1334 19.4764 30.8502 14.3246 31.8414 8.54451C32.5848 3.76964 30.7264 0 26.0183 0C22.6731 0 19.4518 2.26178 18.7084 6.03142C18.0889 10.4293 20.5668 13.0681 23.6642 13.6963C22.4253 17.9686 17.2216 22.2408 17.0977 22.2408ZM6.44263 13.9476C5.07976 18.0942 0.123899 22.2408 0 22.2408L2.10624 24C10.0356 19.4764 13.7525 14.3246 14.7437 8.54451C15.4871 3.76964 13.6286 0 8.92056 0C5.57535 0 2.35403 2.26178 1.73455 6.03142C0.991175 10.4293 3.34521 13.3194 6.44263 13.9476Z" fill="#D9D9D9"/>
</svg>
