<svg width="169" height="311" viewBox="0 0 169 311" fill="none" xmlns="http://www.w3.org/2000/svg">
<g opacity="0.6" clip-path="url(#clip0_152_158)">
<path fill-rule="evenodd" clip-rule="evenodd" d="M-58.0926 196.672C-59.9201 199.973 -62.3899 202.76 -65.2977 204.805C-60.7485 198.516 -55.6421 191.01 -49.9785 182.284C-49.8533 176.733 -50.7196 173.08 -52.5776 171.326C-52.4298 157.442 -27.1192 141.437 -15.7319 150.583C-13.7263 150.407 -11.7282 150.711 -9.86559 151.475C-8.00298 152.24 -6.31688 153.448 -4.91515 155.023C-3.51343 156.598 -2.427 158.505 -1.72534 160.622C-1.02368 162.738 -0.722252 165.018 -0.840377 167.315C8.96085 169.184 12.8683 171.918 10.8821 175.519C9.1547 188.375 1.41111 197.236 -8.19132 196.971C-11.4568 197.739 -16.0018 202.676 -21.8262 211.781L-21.8696 211.769L-21.705 211.822L-21.5693 211.867L-21.5343 211.878L-21.474 211.895L-21.429 211.912L-21.382 211.925L-21.3704 211.935L-21.3402 211.944L-21.2933 211.957L-21.2462 211.971L-21.2003 211.986L-21.1545 211.998L-21.1075 212.012L-21.0605 212.025L-21.0281 212.034L-21.0178 212.042C-20.269 212.242 -19.503 212.363 -18.7293 212.404C-15.8144 211.974 -14.7109 212.521 -15.4187 214.047C-16.9474 216.621 -18.0264 219.01 -18.6555 221.216C-20.3058 222.934 -21.1895 222.778 -21.3067 220.751C-23.0795 218.712 -24.7531 217.556 -26.3275 217.282L-26.3668 217.275L-26.4107 217.269L-26.4532 217.264L-26.4961 217.256L-26.5789 217.245L-26.6105 217.245L-26.6182 217.238L-26.6259 217.232C-26.9559 217.197 -27.2896 217.203 -27.6214 217.25C-33.48 219.378 -35.3982 218.303 -33.3761 214.024C-42.5159 210.016 -50.8866 204.138 -58.0932 196.667L-58.0926 196.672ZM-25.3534 217.533C-25.5887 217.445 -25.8293 217.374 -26.0736 217.321C-26.6628 218.759 -27.2526 220.265 -27.8431 221.839C-26.9896 220.336 -26.1609 218.9 -25.3572 217.53L-25.3534 217.533ZM-23.3391 211.123C-18.8599 201.755 -14.3706 196.324 -9.87113 194.832C-5.27474 194.883 -1.37117 193.47 1.8395 190.592C1.70993 189.979 1.58435 189.359 1.46276 188.734L1.45223 188.692C1.39001 188.374 1.33209 188.052 1.28042 187.724C1.20803 187.272 1.14905 186.814 1.09922 186.355C-0.533563 188.104 -2.49007 189.401 -4.60897 190.139C-6.72786 190.876 -8.94842 191.033 -11.0875 190.597C-13.2266 190.161 -15.223 189.144 -16.912 187.63C-18.6009 186.117 -19.9341 184.149 -20.8016 181.891C-15.0277 189.932 -1.77499 193.07 2.40754 180.112C-0.320762 176.299 -1.06775 172.85 0.166593 169.762C-5.46512 167.505 -8.50558 165.931 -8.95472 165.039C-6.83224 165.562 -4.73395 166.172 -2.65992 166.868C-2.61179 166.097 -2.7899 165.34 -3.16594 164.719C-4.05287 164.137 -5.09732 163.92 -6.13238 164.104C-5.7955 163.57 -5.31265 163.177 -4.76529 162.992C-4.21793 162.807 -3.63958 162.842 -3.1277 163.089C-4.55826 157.586 -8.79748 153.665 -13.6106 152.98C-17.7211 152.391 -16.3889 151.927 -19.4155 150.644C-23.6538 148.852 -28.4315 149.591 -33.7485 152.862C-44.4924 159.274 -49.9583 164.701 -50.1461 169.142C-47.623 175.147 -46.8585 180.98 -47.8525 186.643C-48.0304 192.805 -46.6678 194.606 -43.765 192.044C-32.3747 184.092 -42.8171 171.921 -30.4704 159.966C-33.4258 165.576 -35.1152 171.322 -35.5387 177.206C-36.1063 185.16 -36.8492 191.357 -44.4319 195.293C-48.3841 196.902 -50.1646 194.066 -49.7735 186.786C-51.1566 187.935 -52.3148 189.407 -53.1664 191.099C-48.0202 197.772 -40.8869 203.27 -31.7667 207.592C-30.2741 205.162 -29.1079 204.783 -28.2681 206.454C-27.1398 208.303 -25.6375 209.805 -23.8816 210.84L-23.8429 210.872L-23.8275 210.885L-23.8057 210.904L-23.7195 210.955L-23.6784 210.977L-23.5205 211.065L-23.5102 211.074L-23.213 211.229L-23.369 211.147L-23.3391 211.123ZM3.12284 189.321C4.23065 188.104 5.21831 186.751 6.06658 185.29C7.13641 182.84 7.89601 180.24 8.32163 177.571C7.32833 178.957 5.99479 179.971 4.5069 180.473C3.71883 181.438 3.14454 182.602 2.83573 183.86C2.52692 185.119 2.49326 186.432 2.73777 187.683L2.91362 188.415C2.97739 188.716 3.04834 189.018 3.11569 189.319L3.12284 189.321Z" fill="#F8D9CC"/>
<path fill-rule="evenodd" clip-rule="evenodd" d="M-70.2453 200.662C-72.3706 151.214 -61.222 117.077 -36.7996 98.2534C-1.5469 71.0817 42.4901 109.46 30.2435 151.893C40.415 149.562 50.8236 151.542 59.5045 157.459C68.1855 163.375 74.5383 172.82 77.3638 184.01C83.1411 208.461 73.2522 234.407 54.4164 247.393C36.3271 259.862 14.1892 265.528 -6.08169 260.948C29.1441 260.865 53.1661 249.22 65.9841 226.013C69.0201 220.819 71.1147 215.01 72.1373 208.947C73.16 202.884 73.0888 196.697 71.9282 190.772C66.3037 162.017 42.8374 154.667 19.7145 162.356C33.3603 120.776 12.0411 87.5902 -23.9297 99.0909C-56.5596 109.526 -70.5605 163.839 -70.2453 200.662Z" fill="#F8D9CC"/>
<path fill-rule="evenodd" clip-rule="evenodd" d="M-30.1674 73.7517C-25.6365 83.5945 -12.416 85.4873 -0.634275 77.9815C11.1475 70.4757 17.0224 56.4107 12.493 46.5715C7.9637 36.7324 -5.25829 34.836 -17.0377 42.3414C-28.8172 49.8468 -34.6948 63.9095 -30.1674 73.7517Z" fill="#F8D9CC"/>
<path fill-rule="evenodd" clip-rule="evenodd" d="M25.063 96.8924C30.7856 109.332 47.4962 111.723 62.3841 102.236C77.2721 92.7496 84.6997 74.9767 78.9752 62.5396C73.2506 50.1025 56.5433 47.7102 41.6531 57.1973C26.7628 66.6843 19.3371 84.4542 25.063 96.8924Z" fill="#F8D9CC"/>
<path fill-rule="evenodd" clip-rule="evenodd" d="M75.2807 156.895C85.3674 162.998 99.8028 155.119 107.519 139.294C115.236 123.47 113.315 105.695 103.229 99.5887C93.1416 93.4826 78.7078 101.366 70.989 117.191C63.2701 133.016 65.1931 150.793 75.2807 156.895Z" fill="#F8D9CC"/>
<path fill-rule="evenodd" clip-rule="evenodd" d="M92.5303 222.639C101.082 227.814 113.323 221.134 119.867 207.712C126.411 194.291 124.784 179.22 116.232 174.048C107.681 168.876 95.4383 175.553 88.8931 188.973C82.348 202.393 83.9736 217.463 92.5303 222.639Z" fill="#F8D9CC"/>
<path fill-rule="evenodd" clip-rule="evenodd" d="M4.45867 253.221C2.84021 255.315 1.66477 257.798 1.02979 260.467C3.89001 255.653 7.37317 250.156 11.4793 243.975C14.8101 242.731 17.1982 242.645 18.6435 243.718C27.0115 240.727 31.4526 217.864 23.565 210.961C23.2566 209.375 22.6594 207.894 21.8114 206.613C20.9635 205.332 19.8835 204.279 18.6407 203.522C17.3979 202.765 16.0196 202.32 14.5941 202.216C13.1686 202.112 11.7272 202.351 10.3623 202.918C7.2025 195.734 4.74078 193.281 2.97713 195.56C-4.43647 199.558 -8.19783 207.371 -6.04693 214.737C-5.83287 217.419 -7.87774 221.952 -12.1815 228.334L-12.1641 228.365L-12.234 228.25L-12.2913 228.155L-12.3043 228.132L-12.33 228.089L-12.3478 228.056L-12.3643 228.023L-12.3746 228.014L-12.39 228.001L-12.4091 227.967L-12.4265 227.935L-12.4462 227.905L-12.4647 227.875L-12.4789 227.842L-12.4956 227.807L-12.5149 227.791C-12.7938 227.256 -13.0266 226.689 -13.2103 226.1C-13.5505 223.759 -14.1103 223.02 -14.8897 223.88C-16.1311 225.595 -17.353 226.922 -18.5553 227.862C-19.2536 229.495 -18.977 230.146 -17.7256 229.816C-16.1283 230.765 -15.0825 231.819 -14.5881 232.978L-14.5778 233.008L-14.5636 233.041L-14.5523 233.069L-14.5382 233.102L-14.5146 233.167L-14.5064 233.188L-14.5 233.193C-14.4122 233.441 -14.3475 233.7 -14.3069 233.966C-14.377 238.934 -13.3298 240.193 -11.1653 237.741C-6.85098 243.974 -1.56381 249.225 4.44628 253.246L4.45867 253.221ZM-14.9322 232.244C-14.8299 232.408 -14.7368 232.58 -14.6534 232.758C-15.4051 233.511 -16.194 234.275 -17.0255 235.056C-16.2907 234.088 -15.5929 233.151 -14.9322 232.244ZM-11.4673 229.365C-6.72788 223.969 -4.37345 219.378 -4.40396 215.589C-5.38836 212.05 -5.34098 208.742 -4.26191 205.664C-3.86449 205.639 -3.4644 205.607 -3.06514 205.567L-3.03746 205.565C-2.82897 205.551 -2.62515 205.526 -2.41682 205.501C-2.12753 205.458 -1.83984 205.412 -1.55099 205.355C-2.27032 206.978 -2.64917 208.758 -2.65629 210.548C-2.66341 212.337 -2.29859 214.085 -1.59195 215.647C-0.885304 217.209 0.142942 218.54 1.408 219.531C2.67305 220.522 4.13869 221.145 5.68404 221.347C-0.375398 218.549 -5.01544 208.963 1.95653 203.049C4.82746 204.365 7.06833 204.228 8.67905 202.637C11.2093 206.523 12.791 208.546 13.4243 208.708C12.6673 207.181 11.8641 205.685 11.0147 204.222C11.4714 204.025 11.9659 204.007 12.4195 204.17C12.955 204.735 13.3019 205.497 13.4044 206.335C13.6588 205.964 13.7972 205.51 13.7963 205.048C13.7954 204.587 13.6552 204.146 13.3994 203.802C15.1631 203.801 16.8715 204.362 18.3338 205.422C19.7962 206.482 20.9549 207.999 21.6806 209.805C22.8902 212.858 22.897 211.732 24.2988 213.806C26.2584 216.706 26.7987 220.551 25.9199 225.339C24.2661 234.963 22.1151 240.307 19.4669 241.373C15.3154 240.664 11.6298 241.28 8.41 243.223C4.71969 244.633 3.34838 243.954 4.29615 241.186C6.74983 230.74 16.2709 236.288 20.9461 224.279C18.1629 227.721 15.0366 230.214 11.5671 231.756C6.87759 233.842 3.28521 235.7 2.47016 242.372C2.31518 245.758 4.39903 246.546 8.72162 244.735C8.3128 246.043 7.66101 247.243 6.81261 248.251C1.71005 245.66 -3.09054 241.286 -7.58907 235.13C-6.42744 233.474 -6.43972 232.495 -7.62602 232.193C-8.97659 231.703 -10.1954 230.854 -11.1858 229.714L-11.2128 229.691L-11.2386 229.669L-11.287 229.612L-11.314 229.59L-11.3975 229.489L-11.4065 229.482C-11.4593 229.416 -11.5162 229.345 -11.5631 229.279L-11.4826 229.385L-11.4673 229.365ZM-11.7896 228.932C-11.8684 228.821 -11.945 228.709 -12.0172 228.595C-11.9424 228.712 -11.8684 228.821 -11.7896 228.932ZM-3.7609 204.409C-3.25198 203.303 -2.63588 202.263 -1.92479 201.309C-0.665982 199.973 0.749031 198.848 2.2753 197.969C1.64319 199.023 1.30542 200.263 1.30901 201.516C0.888465 202.324 0.303406 203.008 -0.393637 203.507C-1.09068 204.006 -1.87786 204.304 -2.68444 204.374L-3.15986 204.39L-3.7609 204.409Z" fill="#F8D9CC"/>
<path fill-rule="evenodd" clip-rule="evenodd" d="M15.0135 214.683C15.4533 214.576 15.9055 214.644 16.2949 214.874C16.6842 215.104 16.9873 215.484 17.1538 215.949C17.3203 216.414 17.3402 216.938 17.2101 217.432C17.08 217.927 16.8077 218.362 16.4386 218.666C16.5743 217.899 16.5115 217.112 16.2582 216.404C16.0048 215.696 15.572 215.098 15.0135 214.683Z" fill="#F8D9CC"/>
</g>
<defs>
<clipPath id="clip0_152_158">
<rect width="209.935" height="209.909" fill="white" transform="matrix(0.76618 0.642626 -0.548853 0.835919 7.20947 0)"/>
</clipPath>
</defs>
</svg>
