<svg width="199" height="282" viewBox="0 0 199 282" fill="none" xmlns="http://www.w3.org/2000/svg">
<g opacity="0.6" clip-path="url(#clip0_50_414)">
<path fill-rule="evenodd" clip-rule="evenodd" d="M-34.0344 174.589C-36.1094 177.482 -38.7979 179.886 -41.8777 181.602C-36.8458 176.135 -31.1665 169.595 -24.8398 161.982C-24.3293 156.988 -24.9521 153.661 -26.7083 152.001C-25.5987 139.504 1.08512 126.183 11.9596 134.91C13.9986 134.837 15.9966 135.197 17.8259 135.966C19.6553 136.735 21.2755 137.896 22.5831 139.374C23.8906 140.853 24.8566 142.617 25.4192 144.553C25.9819 146.49 26.1288 148.556 25.8505 150.619C35.6256 152.724 39.3851 155.355 37.1289 158.512C34.4941 170.015 26.0562 177.661 16.3711 177.009C13.0181 177.559 8.08392 181.809 1.56847 189.758L1.5255 189.745L1.68813 189.8L1.82214 189.847L1.85679 189.857L1.91648 189.876L1.96079 189.893L2.00738 189.907L2.01839 189.916L2.04828 189.925L2.09481 189.94L2.14141 189.954L2.18683 189.969L2.23217 189.982L2.27876 189.997L2.3253 190.011L2.35749 190.02L2.36731 190.028C3.11015 190.24 3.8758 190.382 4.65484 190.452C7.63015 190.19 8.70739 190.731 7.88659 192.075C6.16383 194.326 4.90825 196.432 4.11993 198.391C2.33353 199.866 1.45126 199.689 1.47307 197.858C-0.177397 195.946 -1.78866 194.832 -3.36068 194.517L-3.39986 194.509L-3.44377 194.502L-3.48643 194.496L-3.52918 194.487L-3.61219 194.474L-3.64406 194.472L-3.65142 194.466L-3.65872 194.46C-3.98977 194.414 -4.32746 194.405 -4.666 194.433C-10.7333 196.097 -12.5973 195.046 -10.258 191.279C-19.2167 187.276 -27.269 181.622 -34.0346 174.584L-34.0344 174.589ZM-2.39368 194.786C-2.62541 194.696 -2.86356 194.622 -3.10673 194.563C-3.80162 195.833 -4.50183 197.164 -5.20738 198.556C-4.24094 197.239 -3.30424 195.982 -2.39733 194.783L-2.39368 194.786ZM0.0851898 189.1C5.2594 180.856 10.1715 176.16 14.8216 175.01C19.4628 175.254 23.5051 174.149 26.9487 171.696C26.8601 171.138 26.7761 170.575 26.6964 170.007L26.6887 169.969C26.6478 169.679 26.6116 169.387 26.5821 169.089C26.5402 168.679 26.5122 168.265 26.4936 167.849C24.7227 169.354 22.6559 170.437 20.4637 171.01C18.2715 171.583 16.0167 171.629 13.8853 171.144C11.7538 170.659 9.80682 169.657 8.20479 168.221C6.60275 166.785 5.39158 164.956 4.6712 162.885C9.9497 170.375 23.1248 173.772 28.2475 162.283C25.7542 158.732 25.238 155.593 26.6988 152.866C21.164 150.591 18.2004 149.042 17.8083 148.22C19.9169 148.782 21.9951 149.422 24.0427 150.138C24.1447 149.446 24.0171 148.757 23.6801 148.181C22.8241 147.619 21.7836 147.379 20.7249 147.5C21.1023 147.033 21.6174 146.7 22.1833 146.557C22.7492 146.414 23.3313 146.47 23.8314 146.715C22.7664 141.698 18.7538 137.984 13.9375 137.159C9.82454 136.452 11.2028 136.091 8.23306 134.806C4.0741 133.01 -0.804948 133.469 -6.40405 136.185C-17.7045 141.497 -23.6032 146.148 -24.1002 150.139C-21.9658 155.656 -21.5968 160.942 -22.9929 165.999C-23.5989 171.54 -22.3465 173.22 -19.236 171.039C-7.17586 164.369 -16.8863 152.958 -3.58286 142.724C-6.95734 147.648 -9.06199 152.75 -9.89687 158.031C-11.0205 165.169 -12.1999 170.718 -20.1346 173.936C-24.2396 175.214 -25.8428 172.584 -24.944 166.044C-26.4211 167.019 -27.6934 168.296 -28.671 169.782C-23.9321 176.014 -17.1041 181.272 -8.18682 185.557C-6.51051 183.433 -5.30583 183.142 -4.57276 184.683C-3.5604 186.396 -2.14622 187.814 -0.443413 188.822L-0.406612 188.853L-0.391951 188.865L-0.371126 188.882L-0.287553 188.932L-0.247642 188.954L-0.0941133 189.04L-0.0843605 189.048L0.205287 189.2L0.0532376 189.12L0.0851898 189.1ZM28.3334 170.607C29.537 169.559 30.6286 168.383 31.5869 167.104C32.8374 164.943 33.7849 162.635 34.3996 160.25C33.3 161.455 31.8822 162.311 30.344 162.698C29.4809 163.533 28.8201 164.557 28.421 165.677C28.0219 166.797 27.897 167.978 28.0576 169.115L28.1847 169.782C28.2283 170.056 28.2791 170.331 28.3263 170.605L28.3334 170.607Z" fill="white"/>
<path fill-rule="evenodd" clip-rule="evenodd" d="M-46.5908 177.658C-45.3183 133.036 -31.6914 102.776 -5.71015 86.8767C31.7927 63.9271 73.6385 100.386 58.3281 138.07C68.7679 136.409 79.149 138.641 87.512 144.343C95.875 150.046 101.641 158.825 103.723 169.023C107.87 191.291 96.0821 214.23 76.15 225.113C57.008 235.562 34.2454 239.71 14.078 234.712C49.6801 236.156 74.7602 226.704 89.3182 206.358C92.7453 201.812 95.2637 196.67 96.7165 191.254C98.1692 185.839 98.5252 180.264 97.7621 174.879C94.0674 148.741 70.8626 141.111 46.9647 147.039C63.6299 110.183 44.3818 79.3791 7.23717 88.1855C-26.4577 96.1768 -44.3624 144.483 -46.5908 177.658Z" fill="white"/>
<path fill-rule="evenodd" clip-rule="evenodd" d="M2.68644 65.0981C6.58423 74.1571 19.8129 76.4314 32.2377 70.18C44.6625 63.9285 51.572 51.5158 47.6755 42.4601C43.7791 33.4045 30.5492 31.1269 18.1267 37.378C5.70426 43.6292 -1.20778 56.0398 2.68644 65.0981Z" fill="white"/>
<path fill-rule="evenodd" clip-rule="evenodd" d="M56.8972 88.3179C61.8195 99.7673 78.5406 102.64 94.2413 94.7387C109.942 86.8374 118.677 71.1524 113.752 59.7057C108.828 48.259 92.1103 45.3846 76.4073 53.2863C60.7042 61.1879 51.9714 76.8702 56.8972 88.3179Z" fill="white"/>
<path fill-rule="evenodd" clip-rule="evenodd" d="M103.493 144.516C113.264 150.447 128.396 143.973 137.288 130.056C146.18 116.138 145.469 100.048 135.698 94.1145C125.928 88.1811 110.797 94.6581 101.902 108.576C93.0078 122.494 93.7213 138.586 103.493 144.516Z" fill="white"/>
<path fill-rule="evenodd" clip-rule="evenodd" d="M116.377 204.465C124.661 209.493 137.493 204.005 145.034 192.201C152.575 180.396 151.973 166.754 143.689 161.728C135.405 156.702 122.572 162.187 115.03 173.99C107.488 185.794 108.088 199.435 116.377 204.465Z" fill="white"/>
<path fill-rule="evenodd" clip-rule="evenodd" d="M25.2637 228.208C23.4834 230.024 22.1238 232.21 21.2976 234.586C24.5209 230.374 28.4209 225.573 32.9976 220.184C36.4495 219.208 38.8687 219.233 40.2551 220.261C48.9179 217.929 54.987 197.531 47.4939 190.975C47.292 189.533 46.7909 188.174 46.0227 186.984C45.2544 185.793 44.2359 184.799 43.0324 184.063C41.8289 183.328 40.4669 182.868 39.0336 182.713C37.6002 182.558 36.1272 182.711 34.7087 183.163C32.0125 176.557 29.6946 174.242 27.7548 176.218C19.9866 179.499 15.6453 186.373 17.3094 193.099C17.3402 195.524 14.9603 199.517 10.1698 205.079L10.1853 205.108L10.1226 205.001L10.0713 204.913L10.0597 204.892L10.0367 204.853L10.021 204.821L10.0067 204.791L9.99685 204.783L9.98213 204.771L9.9653 204.739L9.94983 204.71L9.93203 204.681L9.91543 204.654L9.90337 204.623L9.88885 204.591L9.87048 204.576C9.6257 204.082 9.4296 203.562 9.28473 203.023C9.10285 200.901 8.58831 200.21 7.74119 200.952C6.36811 202.442 5.0416 203.585 3.76165 204.379C2.9431 205.82 3.17755 206.418 4.46493 206.175C6.01338 207.098 6.99729 208.092 7.41671 209.158L7.42506 209.185L7.43713 209.215L7.44658 209.241L7.45859 209.272L7.47789 209.331L7.48473 209.35L7.49083 209.355C7.56245 209.582 7.60994 209.818 7.63258 210.059C7.21806 214.531 8.18926 215.709 10.5461 213.595C14.4747 219.393 19.4543 224.35 25.2495 228.23L25.2637 228.208ZM7.11977 208.482C7.21178 208.634 7.29398 208.793 7.36594 208.957C6.55425 209.603 5.70418 210.257 4.80995 210.923C5.61947 210.084 6.38939 209.27 7.11977 208.482ZM10.8203 206.038C15.9827 201.384 18.6795 197.35 18.9107 193.937C18.1607 190.708 18.4374 187.731 19.7407 185.006C20.144 185 20.5505 184.989 20.9567 184.97L20.9849 184.969C21.1965 184.966 21.4042 184.952 21.6165 184.938C21.9118 184.912 22.2057 184.883 22.5015 184.844C21.6623 186.275 21.1564 187.861 21.0254 189.473C20.8945 191.084 21.1422 192.673 21.7483 194.11C22.3543 195.547 23.3013 196.791 24.5111 197.738C25.7209 198.685 27.1589 199.309 28.7065 199.558C22.7769 196.776 18.7511 187.944 26.2054 182.918C29.0155 184.227 31.2895 184.2 33.0271 182.838C35.3153 186.445 36.7737 188.336 37.4024 188.509C36.7431 187.101 36.0349 185.72 35.2777 184.365C35.7528 184.208 36.2539 184.213 36.7009 184.379C37.203 184.911 37.5008 185.612 37.5465 186.371C37.8292 186.048 38.0004 185.645 38.0315 185.229C38.0625 184.814 37.9512 184.411 37.7166 184.09C39.4989 184.165 41.1864 184.744 42.5909 185.761C43.9953 186.779 45.0612 188.195 45.6697 189.852C46.6809 192.654 46.7655 191.641 48.0387 193.569C49.8183 196.265 50.0984 199.75 48.8791 204.025C46.5423 212.619 43.9991 217.34 41.2493 218.185C37.1032 217.368 33.3362 217.764 29.9482 219.374C26.1215 220.486 24.7827 219.815 25.9319 217.363C29.1339 208.061 38.3713 213.469 43.9264 202.855C40.8758 205.835 37.5442 207.945 33.9315 209.185C29.0484 210.861 25.2897 212.379 24.0047 218.352C23.6139 221.395 25.6651 222.194 30.1584 220.75C29.6549 221.91 28.9132 222.962 27.9862 223.833C23.0092 221.28 18.4606 217.135 14.3406 211.397C15.6289 209.956 15.6842 209.074 14.5063 208.751C13.1755 208.251 12.0025 207.434 11.0806 206.365L11.0548 206.343L11.0303 206.322L10.9854 206.269L10.9596 206.247L10.8822 206.153L10.8736 206.146C10.8248 206.085 10.7722 206.018 10.7293 205.957L10.8034 206.056L10.8203 206.038ZM10.5245 205.634C10.4525 205.531 10.3829 205.427 10.3178 205.321C10.3853 205.43 10.4525 205.531 10.5245 205.634ZM20.3338 183.897C20.9245 182.923 21.6191 182.013 22.4036 181.184C23.768 180.036 25.2758 179.084 26.8789 178.357C26.1672 179.28 25.7402 180.381 25.6571 181.51C25.1763 182.22 24.5377 182.811 23.7989 183.23C23.06 183.649 22.2439 183.883 21.424 183.912L20.9425 183.906L20.3338 183.897Z" fill="white"/>
<path fill-rule="evenodd" clip-rule="evenodd" d="M13.5069 148.761C13.4942 148.103 13.2608 147.486 12.8447 147.01C12.4286 146.535 11.8543 146.229 11.2152 146.143C10.5762 146.057 9.91024 146.196 9.32569 146.536C8.74114 146.877 8.27252 147.4 7.99616 148.019C8.92795 147.574 9.94721 147.408 10.9271 147.54C11.9069 147.672 12.8041 148.096 13.5069 148.761Z" fill="white"/>
<path fill-rule="evenodd" clip-rule="evenodd" d="M38.5949 193.959C39.0468 193.882 39.4991 193.962 39.8767 194.186C40.2542 194.41 40.5343 194.765 40.6703 195.191C40.8064 195.617 40.7902 196.09 40.6245 196.529C40.4588 196.969 40.1535 197.349 39.7595 197.608C39.9497 196.922 39.9407 196.211 39.7337 195.563C39.5266 194.914 39.1306 194.356 38.5949 193.959Z" fill="white"/>
</g>
<defs>
<clipPath id="clip0_50_414">
<rect width="199.913" height="199.877" fill="white" transform="matrix(0.766376 0.642392 -0.643183 0.765712 45.5575 0.293457)"/>
</clipPath>
</defs>
</svg>
